<svg width="77" height="14" viewBox="0 0 77 14" fill="none" xmlns="http://www.w3.org/2000/svg">
<path d="M42.8831 11.9079C40.1206 11.9079 38.0218 9.57165 38.0218 6.93869C38.0218 4.52695 39.8832 1.96953 42.8831 1.96953C44.9441 1.96953 46.0286 3.01623 46.7138 3.84713L47.7821 2.77884C46.676 1.51092 45.2948 0.496582 42.8885 0.496582C39.0415 0.496582 36.5543 3.60973 36.5543 6.93869C36.5543 10.1759 39.0415 13.3808 42.8885 13.3808C45.079 13.3808 46.676 12.5715 47.7821 11.1201L46.7138 10.0518C45.9962 11.1903 44.6528 11.9079 42.8831 11.9079Z" fill="#A75CFF"/>
<path d="M50.9654 9.42058V0.496582H49.4925V9.46374C49.4925 11.5949 50.5608 13.0894 52.4708 13.0894V11.5841C51.424 11.5787 50.9654 10.6561 50.9654 9.42058Z" fill="#A75CFF"/>
<path d="M54.1109 3.45862V13.084H55.4921V3.45862H54.1109Z" fill="#A75CFF"/>
<path d="M65.3604 10.0304C64.9341 11.1148 63.6284 11.9997 62.2472 11.9997C60.2401 11.9997 58.6215 10.3271 58.6215 8.32001C58.6215 5.96222 60.4991 4.65654 62.2472 4.65654C63.2562 4.65654 64.7129 5.19068 65.3388 6.64205L66.4233 5.64929C65.7434 4.21412 64.0331 3.18359 62.1717 3.18359C59.6682 3.18359 57.1486 5.15291 57.1486 8.32001C57.1486 11.1364 59.4308 13.4726 62.1717 13.4726C64.0331 13.4726 65.7434 12.4799 66.4448 11.0069L65.3604 10.0304Z" fill="#A75CFF"/>
<path d="M72.0399 6.97646L75.2609 3.45866H73.475L69.4609 7.54298V0.496582H67.9879V13.0841H69.4609V9.40439L71.0093 8.04475L74.9264 13.0841H76.7501L72.0399 6.97646Z" fill="#A75CFF"/>
<path d="M7.10078 11.9079C4.33833 11.9079 2.23952 9.57165 2.23952 6.93869C2.23952 4.52695 4.10094 1.96953 7.10078 1.96953C9.16183 1.96953 10.2463 3.01623 10.9261 3.84713L11.9998 2.77884C10.8937 1.51092 9.51252 0.496582 7.10617 0.496582C3.25925 0.496582 0.771973 3.60973 0.771973 6.93869C0.771973 10.1759 3.25925 13.3808 7.10617 13.3808C9.29671 13.3808 10.8937 12.5715 11.9998 11.1201L10.9315 10.0518C10.2139 11.1903 8.87047 11.9079 7.10078 11.9079Z" fill="#151B32"/>
<path d="M15.1831 9.42058V0.496582H13.7101V9.46374C13.7101 11.5949 14.7784 13.0894 16.6938 13.0894V11.5841C15.6417 11.5787 15.1831 10.6561 15.1831 9.42058Z" fill="#151B32"/>
<path d="M18.334 3.45862V13.084H19.7152V3.45862H18.334Z" fill="#151B32"/>
<path d="M26.5566 3.36694C23.8697 3.36694 21.9705 5.13663 21.9705 8.04475V13.0841H23.4435V8.04475C23.4435 5.9999 24.6574 4.83989 26.5566 4.83989C28.4558 4.83989 29.6482 5.96213 29.6482 8.04475V13.0841H31.1211V8.04475C31.1211 5.13663 29.2435 3.36694 26.5566 3.36694Z" fill="#151B32"/>
<path d="M33.4034 3.45862V13.084H34.7846V3.45862H33.4034Z" fill="#151B32"/>
<path d="M19.0408 2.18002C19.5325 2.18002 19.9311 1.78144 19.9311 1.28978C19.9311 0.798111 19.5325 0.399536 19.0408 0.399536C18.5491 0.399536 18.1506 0.798111 18.1506 1.28978C18.1506 1.78144 18.5491 2.18002 19.0408 2.18002Z" fill="#151B32"/>
<path d="M34.1156 2.18002C34.6073 2.18002 35.0058 1.78144 35.0058 1.28978C35.0058 0.798111 34.6073 0.399536 34.1156 0.399536C33.6239 0.399536 33.2253 0.798111 33.2253 1.28978C33.2253 1.78144 33.6239 2.18002 34.1156 2.18002Z" fill="#151B32"/>
<path d="M54.8231 2.18002C55.3148 2.18002 55.7133 1.78144 55.7133 1.28978C55.7133 0.798111 55.3148 0.399536 54.8231 0.399536C54.3314 0.399536 53.9329 0.798111 53.9329 1.28978C53.9329 1.78144 54.3314 2.18002 54.8231 2.18002Z" fill="#A75CFF"/>
</svg>
