<svg width="18" height="18" viewBox="0 0 18 18" fill="none" xmlns="http://www.w3.org/2000/svg">
<path d="M15.9611 13.803C15.9611 14.0556 15.9049 14.3152 15.7856 14.5678C15.6664 14.8204 15.512 15.0589 15.3085 15.2835C14.9647 15.6623 14.5859 15.936 14.1579 16.1114C13.7369 16.2868 13.2808 16.378 12.7897 16.378C12.074 16.378 11.3092 16.2096 10.5024 15.8658C9.69548 15.522 8.8886 15.0589 8.08874 14.4766C7.28187 13.8872 6.51709 13.2347 5.78739 12.512C5.06471 11.7823 4.41219 11.0175 3.82984 10.2177C3.2545 9.41782 2.79142 8.61796 2.45464 7.82512C2.11785 7.02526 1.94946 6.26048 1.94946 5.53078C1.94946 5.05367 2.03366 4.59761 2.20205 4.17663C2.37044 3.74864 2.63706 3.35572 3.00893 3.00491C3.45797 2.56288 3.94911 2.34537 4.46832 2.34537C4.66478 2.34537 4.86124 2.38747 5.03664 2.47167C5.21907 2.55586 5.38044 2.68215 5.50674 2.86458L7.13452 5.15892C7.26082 5.33432 7.35203 5.4957 7.41518 5.65006C7.47832 5.7974 7.51341 5.94474 7.51341 6.07805C7.51341 6.24645 7.46429 6.41484 7.36606 6.57621C7.27485 6.73759 7.14154 6.90598 6.97315 7.07437L6.43991 7.62866C6.36273 7.70584 6.32765 7.79705 6.32765 7.90931C6.32765 7.96544 6.33466 8.01456 6.3487 8.07069C6.36975 8.12682 6.39079 8.16892 6.40483 8.21102C6.53112 8.44255 6.74863 8.74426 7.05734 9.10911C7.37308 9.47395 7.70986 9.84582 8.07471 10.2177C8.45359 10.5895 8.81844 10.9333 9.19031 11.2491C9.55516 11.5578 9.85686 11.7683 10.0954 11.8946C10.1305 11.9086 10.1726 11.9297 10.2217 11.9507C10.2778 11.9718 10.334 11.9788 10.3971 11.9788C10.5164 11.9788 10.6076 11.9367 10.6848 11.8595L11.218 11.3333C11.3934 11.1579 11.5618 11.0246 11.7232 10.9404C11.8846 10.8421 12.0459 10.793 12.2214 10.793C12.3547 10.793 12.495 10.8211 12.6494 10.8842C12.8037 10.9474 12.9651 11.0386 13.1405 11.1579L15.4629 12.8067C15.6453 12.933 15.7716 13.0803 15.8488 13.2558C15.919 13.4312 15.9611 13.6066 15.9611 13.803Z" stroke="#A75CFF" stroke-width="2" stroke-miterlimit="10"/>
</svg>
