<svg width="77" height="14" viewBox="0 0 77 14" fill="none" xmlns="http://www.w3.org/2000/svg">
<path d="M42.3831 11.8899C39.6207 11.8899 37.5219 9.5537 37.5219 6.92075C37.5219 4.509 39.3833 1.95158 42.3831 1.95158C44.4442 1.95158 45.5287 2.99829 46.2139 3.82918L47.2822 2.76089C46.1761 1.49297 44.7949 0.478638 42.3885 0.478638C38.5416 0.478638 36.0543 3.59178 36.0543 6.92075C36.0543 10.158 38.5416 13.3629 42.3885 13.3629C44.5791 13.3629 46.1761 12.5535 47.2822 11.1022L46.2139 10.0339C45.4963 11.1723 44.1528 11.8899 42.3831 11.8899Z" fill="#A75CFF"/>
<path d="M50.4654 9.40263V0.478638H48.9924V9.4458C48.9924 11.577 50.0607 13.0715 51.9707 13.0715V11.5662C50.924 11.5608 50.4654 10.6382 50.4654 9.40263Z" fill="#A75CFF"/>
<path d="M53.611 3.44067V13.0661H54.9922V3.44067H53.611Z" fill="#A75CFF"/>
<path d="M64.8604 10.0124C64.4341 11.0969 63.1284 11.9817 61.7472 11.9817C59.7401 11.9817 58.1215 10.3092 58.1215 8.30207C58.1215 5.94428 59.9991 4.63859 61.7472 4.63859C62.7562 4.63859 64.2129 5.17274 64.8388 6.6241L65.9233 5.63135C65.2434 4.19617 63.5331 3.16565 61.6717 3.16565C59.1682 3.16565 56.6486 5.13497 56.6486 8.30207C56.6486 11.1185 58.9308 13.4547 61.6717 13.4547C63.5331 13.4547 65.2434 12.4619 65.9448 10.989L64.8604 10.0124Z" fill="#A75CFF"/>
<path d="M71.5399 6.95852L74.7609 3.44071H72.975L68.9609 7.52503V0.478638H67.4879V13.0661H68.9609V9.38645L70.5093 8.0268L74.4264 13.0661H76.2501L71.5399 6.95852Z" fill="#A75CFF"/>
<path d="M6.60078 11.8899C3.83833 11.8899 1.73952 9.5537 1.73952 6.92075C1.73952 4.509 3.60094 1.95158 6.60078 1.95158C8.66182 1.95158 9.7463 2.99829 10.4261 3.82918L11.4998 2.76089C10.3937 1.49297 9.01252 0.478638 6.60618 0.478638C2.75925 0.478638 0.271973 3.59178 0.271973 6.92075C0.271973 10.158 2.75925 13.3629 6.60618 13.3629C8.79671 13.3629 10.3937 12.5535 11.4998 11.1022L10.4315 10.0339C9.71393 11.1723 8.37047 11.8899 6.60078 11.8899Z" fill="#151B32"/>
<path d="M14.6831 9.40263V0.478638H13.2102V9.4458C13.2102 11.577 14.2785 13.0715 16.1939 13.0715V11.5662C15.1418 11.5608 14.6831 10.6382 14.6831 9.40263Z" fill="#151B32"/>
<path d="M17.834 3.44067V13.0661H19.2152V3.44067H17.834Z" fill="#151B32"/>
<path d="M26.0566 3.349C23.3696 3.349 21.4705 5.11869 21.4705 8.02681V13.0661H22.9434V8.02681C22.9434 5.98195 24.1574 4.82194 26.0566 4.82194C27.9557 4.82194 29.1481 5.94419 29.1481 8.02681V13.0661H30.6211V8.02681C30.6211 5.11869 28.7435 3.349 26.0566 3.349Z" fill="#151B32"/>
<path d="M32.9033 3.44067V13.0661H34.2845V3.44067H32.9033Z" fill="#151B32"/>
<path d="M18.5408 2.16207C19.0324 2.16207 19.431 1.7635 19.431 1.27183C19.431 0.780166 19.0324 0.381592 18.5408 0.381592C18.0491 0.381592 17.6505 0.780166 17.6505 1.27183C17.6505 1.7635 18.0491 2.16207 18.5408 2.16207Z" fill="#151B32"/>
<path d="M33.6156 2.16207C34.1073 2.16207 34.5058 1.7635 34.5058 1.27183C34.5058 0.780166 34.1073 0.381592 33.6156 0.381592C33.1239 0.381592 32.7253 0.780166 32.7253 1.27183C32.7253 1.7635 33.1239 2.16207 33.6156 2.16207Z" fill="#151B32"/>
<path d="M54.3231 2.16207C54.8148 2.16207 55.2133 1.7635 55.2133 1.27183C55.2133 0.780166 54.8148 0.381592 54.3231 0.381592C53.8314 0.381592 53.4329 0.780166 53.4329 1.27183C53.4329 1.7635 53.8314 2.16207 54.3231 2.16207Z" fill="#A75CFF"/>
</svg>
