<svg width="23" height="23" viewBox="0 0 23 23" fill="none" xmlns="http://www.w3.org/2000/svg">
<path d="M3.22462 20.9709L3.22462 0.313048L20.1935 0.313049L20.1935 20.9709L22.7758 20.9709L22.7758 22.4464L0.642395 22.4464L0.642395 20.9708L3.22462 20.9709ZM4.70018 20.9709L10.9713 20.9709L10.9713 18.0197L12.4469 18.0197L12.4469 20.9709L18.718 20.9709L18.718 1.78861L4.70018 1.78861L4.70018 20.9709Z" fill="#A75CFF"/>
<path d="M14.6602 13.5931L16.1357 13.5931L16.1357 15.0686L14.6602 15.0686L14.6602 13.5931Z" fill="#A75CFF"/>
<path d="M10.9713 13.5931L12.4469 13.5931L12.4469 15.0686L10.9713 15.0686L10.9713 13.5931Z" fill="#A75CFF"/>
<path d="M7.28238 13.5931L8.75793 13.5931L8.75793 15.0686L7.28238 15.0686L7.28238 13.5931Z" fill="#A75CFF"/>
<path d="M14.6602 9.1664L16.1357 9.1664L16.1357 10.642L14.6602 10.642L14.6602 9.1664Z" fill="#A75CFF"/>
<path d="M10.9713 9.1664L12.4469 9.1664L12.4469 10.642L10.9713 10.642L10.9713 9.1664Z" fill="#A75CFF"/>
<path d="M7.28238 9.1664L8.75793 9.1664L8.75793 10.642L7.28238 10.642L7.28238 9.1664Z" fill="#A75CFF"/>
<path d="M14.6602 4.73972L16.1357 4.73972L16.1357 6.21527L14.6602 6.21527L14.6602 4.73972Z" fill="#A75CFF"/>
<path d="M10.9713 4.73972L12.4469 4.73972L12.4469 6.21527L10.9713 6.21527L10.9713 4.73972Z" fill="#A75CFF"/>
<path d="M7.28238 4.73972L8.75793 4.73972L8.75793 6.21527L7.28238 6.21527L7.28238 4.73972Z" fill="#A75CFF"/>
</svg>
