<svg xmlns="http://www.w3.org/2000/svg" width="27" height="26" viewBox="0 0 27 26" fill="none">
  <path d="M23.3934 4.53528H3.68965C3.31638 4.53528 2.9584 4.68356 2.69446 4.9475C2.43052 5.21144 2.28224 5.56942 2.28224 5.94269V20.0168C2.28224 20.39 2.43052 20.748 2.69446 21.012C2.9584 21.2759 3.31638 21.4242 3.68965 21.4242H14.2452L14.6463 20.9316L15.3008 20.1294L15.2374 20.0168H3.68965V5.94269H23.3934V11.9664C23.928 12.3125 24.4032 12.7426 24.8008 13.2401V5.94269C24.8008 5.56942 24.6525 5.21144 24.3886 4.9475C24.1246 4.68356 23.7666 4.53528 23.3934 4.53528Z" fill="#A75CFF"/>
  <path d="M5.80076 8.75749H17.7637V9.88342H5.80076V8.75749Z" fill="#A75CFF"/>
  <path d="M5.80076 11.5723H13.5415V12.6982H5.80076V11.5723Z" fill="#A75CFF"/>
  <path d="M5.80076 16.4982H12.8378V17.6242H5.80076V16.4982Z" fill="#A75CFF"/>
  <path d="M20.1985 12.4379C19.298 12.4307 18.4163 12.6954 17.6686 13.1973C16.9209 13.6992 16.342 14.415 16.0076 15.2511C15.6731 16.0872 15.5987 17.0048 15.794 17.8839C15.9893 18.763 16.4452 19.5628 17.1022 20.1786L15.7371 21.8464L16.3704 24.3868L18.946 21.2482C19.7612 21.4893 20.6288 21.4893 21.4441 21.2482L24.0197 24.3868L24.653 21.8464L23.2878 20.1786C23.9448 19.5628 24.4008 18.763 24.5961 17.8839C24.7914 17.0048 24.717 16.0872 24.3825 15.2511C24.048 14.415 23.4691 13.6992 22.7214 13.1973C21.9737 12.6954 21.092 12.4307 20.1915 12.4379H20.1985ZM20.1985 19.9534C19.6006 19.9451 19.0184 19.7602 18.5252 19.4219C18.032 19.0836 17.6498 18.6071 17.4267 18.0522C17.2036 17.4973 17.1496 16.8888 17.2713 16.3033C17.3931 15.7178 17.6852 15.1813 18.111 14.7614C18.5368 14.3414 19.0773 14.0567 19.6644 13.9431C20.2516 13.8294 20.8592 13.8919 21.411 14.1226C21.9627 14.3534 22.4339 14.7421 22.7654 15.2399C23.0968 15.7377 23.2737 16.3224 23.2737 16.9205C23.2663 17.7299 22.9386 18.5034 22.3623 19.0718C21.786 19.6402 21.008 19.9572 20.1985 19.9534Z" fill="#A75CFF"/>
</svg>