<svg width="26" height="29" viewBox="0 0 26 29" fill="none" xmlns="http://www.w3.org/2000/svg">
<g clip-path="url(#clip0_1_128)">
<path d="M16.123 0.0510254C16.7698 0.171871 17.4165 0.256463 18.0515 0.425648C19.6978 0.872778 21.1089 1.74287 22.3083 2.98758C23.6724 4.41356 24.5661 6.12957 24.9189 8.09936C25.0365 8.76402 25.0953 9.45284 25.107 10.1296C25.1188 15.8214 25.1188 21.5253 25.1188 27.2172C25.1188 27.3501 25.107 27.4951 25.0718 27.616C25.0012 27.8698 24.8013 28.0269 24.5426 28.0389C24.2957 28.0389 24.0722 27.8818 24.0017 27.6401C23.9664 27.5072 23.9546 27.3501 23.9546 27.2051C23.9546 21.5133 23.9546 15.8093 23.9546 10.1175C23.9546 8.38939 23.5548 6.78214 22.6494 5.33199C21.4147 3.33803 19.6743 2.0329 17.4401 1.48909C16.7698 1.31991 16.0525 1.2474 15.3587 1.2474C13.3596 1.22323 11.3488 1.22323 9.34974 1.25948C7.72698 1.29574 6.25708 1.83954 4.94005 2.78214C3.42312 3.86976 2.34128 5.31991 1.74156 7.12051C1.4123 8.09936 1.27119 9.11447 1.27119 10.1537C1.27119 15.8335 1.27119 21.5253 1.27119 27.2051C1.27119 27.338 1.25943 27.483 1.22415 27.6039C1.1536 27.8698 0.941934 28.0389 0.683232 28.0269C0.43629 28.0269 0.224625 27.8698 0.15407 27.6039C0.118792 27.4951 0.107033 27.3743 0.107033 27.2534C0.107033 21.5133 0.0952738 15.7731 0.107033 10.0329C0.107033 7.65223 0.824343 5.50118 2.306 3.66432C3.77589 1.86371 5.6456 0.727763 7.8916 0.232294C8.29142 0.147702 8.69123 0.111448 9.09104 0.0510254C11.4429 0.0510254 13.7829 0.0510254 16.123 0.0510254Z" fill="#A75CFF"/>
<path d="M5.51649 23.483C5.02261 23.1809 4.52872 22.9271 4.08188 22.6009C3.65855 22.2987 3.48216 21.8637 3.52919 21.2957C3.64679 20.0993 3.69382 18.903 3.77614 17.6945C3.85845 16.4256 3.94077 15.1568 4.02308 13.8758C4.10539 12.6915 4.17595 11.5193 4.2465 10.335C4.34058 8.9211 4.41113 7.51929 4.52872 6.10539C4.64632 4.73983 5.91631 3.55554 7.26861 3.55554C10.8199 3.55554 14.3829 3.55554 17.9342 3.55554C19.357 3.55554 20.6035 4.82442 20.6976 6.27458C20.8034 8.05101 20.9328 9.83953 21.0504 11.616C21.168 13.3924 21.2738 15.1809 21.3914 16.9574C21.4854 18.4438 21.5795 19.9181 21.6971 21.4045C21.7324 21.912 21.5207 22.2987 21.1444 22.5767C20.7446 22.8667 20.2978 23.0963 19.8627 23.3501C19.8039 23.3864 19.7333 23.4105 19.651 23.4468C20.2272 24.1356 20.7799 24.8003 21.3443 25.477C21.7794 26.0087 22.2263 26.5284 22.6614 27.0601C22.8848 27.338 22.8848 27.6401 22.6731 27.8697C22.485 28.0873 22.1792 28.1356 21.9558 27.9664C21.8265 27.8697 21.6971 27.7368 21.6148 27.5918C21.2738 27.0117 20.7917 26.8909 20.1567 26.8909C14.9473 26.9151 9.72628 26.903 4.51696 26.903C4.3053 26.903 4.15243 26.9513 4.02308 27.1326C3.85845 27.3622 3.65855 27.5797 3.4704 27.7972C3.22346 28.0873 2.88244 28.1477 2.62374 27.9302C2.35328 27.7006 2.34152 27.338 2.61198 27.0117C3.36457 26.1054 4.11715 25.2111 4.85798 24.3169C5.06965 24.0268 5.30483 23.7368 5.51649 23.483ZM10.6082 4.764C10.5494 4.75192 10.5259 4.72775 10.5024 4.72775C9.40878 4.72775 8.30342 4.71566 7.20982 4.75192C6.43371 4.77609 5.76344 5.42865 5.69288 6.21415C5.59881 7.31385 5.54001 8.41355 5.46946 9.51325C5.32835 11.5435 5.199 13.5858 5.05789 15.616C4.92854 17.5012 4.81094 19.3984 4.69335 21.2836C4.66983 21.7187 4.66983 21.7429 5.04613 21.9362C6.48075 22.6734 8.0212 22.9513 9.58517 23.1809C10.8081 23.3501 12.0428 23.3743 13.2775 23.3501C15.2413 23.3139 17.1816 23.0359 19.0513 22.3954C19.4864 22.2504 19.8862 22.0208 20.3095 21.8154C20.4977 21.7187 20.5918 21.5737 20.5682 21.332C20.5212 20.9211 20.5212 20.5102 20.4859 20.1114C20.4036 18.8909 20.3213 17.6583 20.239 16.4377C20.1567 15.2534 20.0861 14.0812 20.0038 12.8969C19.9215 11.6401 19.8392 10.3954 19.7569 9.13862C19.6863 8.17186 19.6275 7.193 19.5452 6.22624C19.4746 5.45282 18.8044 4.78817 18.0635 4.764C16.9699 4.72775 15.8646 4.73983 14.771 4.73983C14.7357 4.73983 14.7004 4.764 14.6416 4.77609C15.0061 5.5495 14.9944 6.29874 14.6299 7.04799C14.6769 7.06007 14.6886 7.06007 14.7122 7.06007C15.406 7.06007 16.0997 7.06007 16.7818 7.06007C17.7578 7.06007 18.4869 7.76098 18.5457 8.764C18.6632 10.6855 18.7691 12.5948 18.8867 14.5163C18.8984 14.8063 18.8279 15.0601 18.6162 15.2172C18.2987 15.4468 17.9695 15.6643 17.6049 15.7972C16.5466 16.1839 15.4295 16.2685 14.3124 16.3531C12.5367 16.474 10.7728 16.4135 9.00897 16.1356C8.29166 16.0268 7.57435 15.8697 6.95111 15.471C6.57482 15.2413 6.37491 14.9151 6.41019 14.4317C6.53954 12.5465 6.63362 10.6734 6.75121 8.78817C6.81 7.77307 7.52731 7.06007 8.51508 7.06007C9.04425 7.06007 9.57341 7.06007 10.1143 7.06007C10.2907 7.06007 10.4789 7.06007 10.6788 7.06007C10.2554 6.27458 10.2554 5.52533 10.6082 4.764ZM12.619 8.23228C11.2785 8.23228 9.93794 8.23228 8.60916 8.23228C8.07999 8.23228 7.90361 8.40146 7.86833 8.93319C7.7625 10.6613 7.65666 12.3894 7.55083 14.1054C7.52731 14.5404 7.52731 14.5404 7.91537 14.6734C9.16184 15.0722 10.4553 15.1568 11.7489 15.2051C13.16 15.2534 14.5711 15.2172 15.9586 14.9876C16.476 14.903 16.9934 14.7459 17.4991 14.6129C17.6167 14.5767 17.7108 14.5284 17.699 14.3471C17.5814 12.5586 17.4756 10.77 17.358 8.98152C17.3227 8.37729 17.1581 8.24436 16.5819 8.24436C15.2531 8.22019 13.9361 8.23228 12.619 8.23228ZM5.21076 25.6824C10.1614 25.6824 15.0767 25.6824 20.0156 25.6824C19.7098 25.3199 19.4394 24.9815 19.1571 24.6552C19.0983 24.5948 18.9925 24.5465 18.9102 24.5465C14.7122 24.5465 10.5141 24.5465 6.30436 24.5465C6.22204 24.5465 6.12797 24.5827 6.08093 24.6311C5.78696 24.9694 5.51649 25.3078 5.21076 25.6824ZM12.6073 4.73983C11.9605 4.73983 11.4902 5.2353 11.4902 5.88787C11.4902 6.51627 11.9958 7.0359 12.6073 7.0359C13.2188 7.0359 13.7362 6.51627 13.7362 5.87578C13.7362 5.2353 13.254 4.73983 12.6073 4.73983Z" fill="#A75CFF"/>
<path d="M9.19704 19.326C9.18528 20.2927 8.42093 21.0661 7.46844 21.054C6.52771 21.042 5.77512 20.2565 5.78688 19.2776C5.79864 18.3108 6.56298 17.5374 7.51548 17.5495C8.45621 17.5616 9.2088 18.3471 9.19704 19.326ZM8.04464 19.338C8.06816 19.0118 7.84473 18.7459 7.539 18.7338C7.2215 18.7217 6.98631 18.9272 6.9628 19.2414C6.93928 19.5797 7.15094 19.8335 7.45668 19.8577C7.77418 19.8818 8.03288 19.6643 8.04464 19.338Z" fill="#A75CFF"/>
<path d="M19.4157 19.3018C19.4157 20.2685 18.6514 21.0419 17.7107 21.0419C16.7699 21.0419 16.0056 20.2564 16.0173 19.2897C16.0173 18.3229 16.7817 17.5495 17.7224 17.5495C18.6632 17.5495 19.4275 18.335 19.4157 19.3018ZM18.2633 19.2897C18.2633 18.9634 18.0164 18.7338 17.6989 18.7459C17.3932 18.758 17.1697 18.9876 17.1697 19.3018C17.1697 19.628 17.4049 19.8697 17.7224 19.8577C18.0399 19.8577 18.2751 19.616 18.2633 19.2897Z" fill="#A75CFF"/>
<path d="M12.6308 19.8939C12.0781 19.8939 11.5371 19.906 10.9845 19.8939C10.5141 19.8818 10.2319 19.5072 10.3848 19.0963C10.4788 18.8184 10.7022 18.7096 10.961 18.7096C12.0546 18.6975 13.1599 18.6975 14.2535 18.7096C14.6181 18.7096 14.8885 18.9755 14.8885 19.3018C14.8885 19.6281 14.6181 19.8818 14.2535 19.8939C13.7008 19.906 13.1717 19.8939 12.6308 19.8939Z" fill="#A75CFF"/>
</g>
<defs>
<clipPath id="clip0_1_128">
<rect width="25" height="28" fill="white" transform="translate(0.1073 0.0510254)"/>
</clipPath>
</defs>
</svg>
