<svg width="28" height="29" viewBox="0 0 28 29" fill="none" xmlns="http://www.w3.org/2000/svg">
<g clip-path="url(#clip0_1_195)">
<mask id="path-1-inside-1_1_195" fill="white">
<path d="M0.668213 19.5732C0.833213 19.4799 1.01321 19.2932 1.17071 19.3166C2.12321 19.4332 2.95571 19.0366 3.79571 18.6788C4.94321 18.181 6.12071 18.111 7.30571 18.4921C7.53821 18.5699 7.76321 18.671 8.02571 18.7644C8.07821 18.3288 8.36321 18.1888 8.70071 18.0721C9.05321 17.9477 9.39071 17.7844 9.77321 17.621C9.48071 17.2399 9.22571 16.8744 8.94821 16.5321C8.76071 16.2988 8.70071 16.0655 8.79821 15.7777C8.85071 15.6221 8.85071 15.4277 8.93321 15.2955C9.05321 15.101 9.18821 14.8832 9.37571 14.7821C9.77321 14.5721 10.2007 14.4244 10.6507 14.2377C10.3732 13.8721 10.1332 13.5299 9.87071 13.211C9.64571 12.9388 9.57821 12.6744 9.68321 12.3244C9.89321 11.6088 10.0807 10.8855 10.2457 10.1544C10.2832 9.9988 10.2307 9.77325 10.1332 9.6488C9.80321 9.21325 9.42821 8.8088 9.08321 8.38103C8.60321 7.80547 8.42321 7.13658 8.61071 6.38991C8.93321 5.0988 9.25571 3.80769 9.60821 2.53214C9.97571 1.21769 11.2732 0.432137 12.5707 0.73547C13.1407 0.867692 13.7032 1.05436 14.2732 1.19436C14.4232 1.23325 14.6257 1.21769 14.7532 1.13991C15.5107 0.712137 16.2382 0.229914 17.0932 0.0510254C17.4457 0.0510254 17.7907 0.0510254 18.1432 0.0510254C18.6907 0.284359 19.2832 0.447692 19.7857 0.758803C21.0307 1.5288 22.2382 2.35325 23.4532 3.16991C24.3307 3.7688 25.2007 4.35991 26.2732 4.5388C26.5807 4.59325 26.8807 4.6788 27.1732 4.78769C27.3532 4.85769 27.5032 4.98991 27.6682 5.0988C27.6682 5.23103 27.6682 5.35547 27.6682 5.48769C27.4432 6.30436 27.2107 7.11325 26.9932 7.92991C26.6407 9.26769 26.2957 10.6055 25.9507 11.9355C25.8232 12.4099 25.6507 12.5577 25.2307 12.3788C24.4582 12.0599 23.6857 12.1532 22.9132 12.2777C20.9782 12.5888 19.3357 12.0366 18.0232 10.4966C17.7607 10.1855 16.8757 10.061 16.5082 10.2166C15.9082 10.4655 15.2857 10.6599 14.6782 10.901C14.5432 10.9555 14.3857 11.111 14.3482 11.251C13.6582 13.8721 12.9832 16.4932 12.3082 19.1144C12.3007 19.1532 12.3082 19.1921 12.3082 19.2621C12.4132 19.2777 12.5182 19.2855 12.6232 19.301C13.5532 19.4021 14.1982 20.1566 14.1682 21.1132C14.1382 22.031 13.4407 22.7621 12.5182 22.7777C11.3182 22.801 10.1182 22.7855 8.91821 22.7932C8.82071 22.7932 8.69321 22.7621 8.62571 22.8088C8.49071 22.9177 8.30321 23.0655 8.29571 23.2055C8.28821 23.3455 8.46071 23.5166 8.58821 23.6332C8.65571 23.6955 8.80571 23.6721 8.91821 23.6721C10.3957 23.6721 11.8657 23.6799 13.3432 23.6644C13.5307 23.6644 13.7557 23.571 13.8982 23.4388C15.3007 22.1166 16.6882 20.7632 18.0907 19.441C19.0057 18.5777 20.3707 18.9977 20.6632 20.2188C20.7832 20.7166 20.6782 21.1755 20.3707 21.5721C19.0732 23.2366 17.7832 24.901 16.4707 26.5499C15.8632 27.3121 15.0532 27.7632 14.1157 27.9655C14.0332 27.981 13.9582 28.0199 13.8757 28.0432C9.47321 28.0432 5.07821 28.0432 0.675713 28.0432C0.668213 25.2277 0.668213 22.3966 0.668213 19.5732ZM1.53071 27.1566C1.61321 27.1644 1.66571 27.1799 1.71071 27.1799C5.59571 27.1799 9.48071 27.1877 13.3657 27.1721C14.3032 27.1644 15.1432 26.791 15.7507 26.0444C17.0782 24.3955 18.3757 22.7155 19.6807 21.0432C19.8832 20.7866 19.9057 20.4988 19.7407 20.211C19.4932 19.791 18.9982 19.7599 18.5857 20.1488C17.1307 21.5332 15.6832 22.9255 14.2282 24.3099C14.1082 24.4266 13.9357 24.5432 13.7857 24.5432C12.0607 24.5588 10.3357 24.5588 8.61071 24.551C8.09321 24.551 7.64321 24.1699 7.48571 23.6721C7.20071 22.7855 7.80071 21.9377 8.73821 21.9221C9.93821 21.9066 11.1382 21.9221 12.3382 21.9144C12.4882 21.9144 12.6457 21.9066 12.7807 21.8599C13.1482 21.7277 13.3732 21.3077 13.3132 20.9344C13.2382 20.491 12.9232 20.1955 12.4807 20.1955C11.2807 20.1877 10.0807 20.2032 8.88071 20.1799C8.68571 20.1799 8.46071 20.1021 8.29571 19.9855C7.00571 19.0599 5.64071 18.8888 4.17071 19.4566C3.31571 19.7832 2.52071 20.351 1.52321 20.1799C1.53071 22.521 1.53071 24.8232 1.53071 27.1566ZM18.5857 5.11436C18.8257 5.18436 19.0507 5.25436 19.2757 5.31658C20.0332 5.54214 20.4457 6.21103 20.2507 6.92658C20.0557 7.68103 19.3957 8.05436 18.6157 7.84436C17.4232 7.51769 16.2307 7.17547 15.0382 6.86436C14.3857 6.69325 13.8232 7.29991 14.0182 7.96103C14.1232 8.3188 14.3932 8.48991 14.7232 8.58325C15.8557 8.89436 16.9882 9.20547 18.1132 9.53214C18.2782 9.5788 18.4582 9.69547 18.5632 9.83547C19.5757 11.1032 20.8732 11.6244 22.4482 11.4766C23.3557 11.391 24.2557 11.0644 25.1782 11.5077C25.6957 9.50103 26.1982 7.55658 26.7082 5.5888C26.4982 5.52658 26.3257 5.45658 26.1457 5.42547C25.1332 5.21547 24.2182 4.78769 23.3557 4.18103C22.0207 3.23991 20.6482 2.3688 19.2907 1.47436C18.1282 0.712136 16.9357 0.751025 15.7207 1.63769C17.6632 1.95658 18.8632 2.90547 18.5857 5.11436ZM17.2957 6.5688C17.4607 5.9388 17.6332 5.36325 17.7532 4.77214C17.9257 3.89325 17.4457 3.02214 16.6282 2.78103C15.2182 2.36103 13.7932 1.97214 12.3682 1.5988C11.5432 1.3888 10.6807 1.89436 10.4482 2.73436C10.0807 4.04103 9.74321 5.34769 9.44321 6.66991C9.37571 6.94991 9.42821 7.36214 9.59321 7.57991C10.2982 8.51325 10.9057 9.58658 12.2407 9.69547C12.5557 9.7188 12.8857 9.81214 13.1782 9.95214C13.9582 10.3255 14.6407 10.0066 15.4132 9.67991C15.0382 9.57103 14.7382 9.47769 14.4307 9.39214C13.4557 9.10436 12.9382 8.1788 13.2007 7.20658C13.4482 6.27325 14.3632 5.76769 15.3382 6.02436C15.9757 6.20325 16.6132 6.38214 17.2957 6.5688ZM12.7282 10.7455C11.9857 13.6155 11.2582 16.431 10.5307 19.2621C11.3707 19.3477 11.3707 19.3477 11.5732 18.5855C12.0832 16.6021 12.6007 14.6188 13.1107 12.6355C13.2532 12.091 13.3882 11.5466 13.5307 10.971C13.2607 10.8932 13.0282 10.831 12.7282 10.7455ZM11.1532 13.4677C11.4157 12.4332 11.6632 11.4844 11.9107 10.5121C11.6182 10.4344 11.3782 10.3721 11.1007 10.3021C10.9057 11.0566 10.7182 11.7799 10.5382 12.4955C10.5232 12.5577 10.5457 12.651 10.5832 12.7055C10.7482 12.9388 10.9282 13.1721 11.1532 13.4677ZM18.1207 6.79436C18.4057 6.87991 18.6682 6.96547 18.9307 7.02769C19.1707 7.08214 19.3507 6.98103 19.4257 6.73214C19.5007 6.48325 19.4107 6.2888 19.1707 6.20325C18.9007 6.10991 18.6232 6.04769 18.3307 5.96214C18.2632 6.24991 18.1957 6.50658 18.1207 6.79436ZM10.2832 16.851C10.4332 16.2521 10.5607 15.7466 10.7032 15.1788C10.3882 15.311 10.1482 15.3966 9.92321 15.4977C9.66821 15.6144 9.57821 15.8944 9.73571 16.1277C9.88571 16.3455 10.0582 16.5555 10.2832 16.851ZM9.81821 18.4844C9.48071 18.8344 8.91821 18.671 8.79821 19.2466C9.64571 19.4021 9.66821 19.3866 9.81821 18.4844Z"/>
</mask>
<path d="M0.668213 19.5732C0.833213 19.4799 1.01321 19.2932 1.17071 19.3166C2.12321 19.4332 2.95571 19.0366 3.79571 18.6788C4.94321 18.181 6.12071 18.111 7.30571 18.4921C7.53821 18.5699 7.76321 18.671 8.02571 18.7644C8.07821 18.3288 8.36321 18.1888 8.70071 18.0721C9.05321 17.9477 9.39071 17.7844 9.77321 17.621C9.48071 17.2399 9.22571 16.8744 8.94821 16.5321C8.76071 16.2988 8.70071 16.0655 8.79821 15.7777C8.85071 15.6221 8.85071 15.4277 8.93321 15.2955C9.05321 15.101 9.18821 14.8832 9.37571 14.7821C9.77321 14.5721 10.2007 14.4244 10.6507 14.2377C10.3732 13.8721 10.1332 13.5299 9.87071 13.211C9.64571 12.9388 9.57821 12.6744 9.68321 12.3244C9.89321 11.6088 10.0807 10.8855 10.2457 10.1544C10.2832 9.9988 10.2307 9.77325 10.1332 9.6488C9.80321 9.21325 9.42821 8.8088 9.08321 8.38103C8.60321 7.80547 8.42321 7.13658 8.61071 6.38991C8.93321 5.0988 9.25571 3.80769 9.60821 2.53214C9.97571 1.21769 11.2732 0.432137 12.5707 0.73547C13.1407 0.867692 13.7032 1.05436 14.2732 1.19436C14.4232 1.23325 14.6257 1.21769 14.7532 1.13991C15.5107 0.712137 16.2382 0.229914 17.0932 0.0510254C17.4457 0.0510254 17.7907 0.0510254 18.1432 0.0510254C18.6907 0.284359 19.2832 0.447692 19.7857 0.758803C21.0307 1.5288 22.2382 2.35325 23.4532 3.16991C24.3307 3.7688 25.2007 4.35991 26.2732 4.5388C26.5807 4.59325 26.8807 4.6788 27.1732 4.78769C27.3532 4.85769 27.5032 4.98991 27.6682 5.0988C27.6682 5.23103 27.6682 5.35547 27.6682 5.48769C27.4432 6.30436 27.2107 7.11325 26.9932 7.92991C26.6407 9.26769 26.2957 10.6055 25.9507 11.9355C25.8232 12.4099 25.6507 12.5577 25.2307 12.3788C24.4582 12.0599 23.6857 12.1532 22.9132 12.2777C20.9782 12.5888 19.3357 12.0366 18.0232 10.4966C17.7607 10.1855 16.8757 10.061 16.5082 10.2166C15.9082 10.4655 15.2857 10.6599 14.6782 10.901C14.5432 10.9555 14.3857 11.111 14.3482 11.251C13.6582 13.8721 12.9832 16.4932 12.3082 19.1144C12.3007 19.1532 12.3082 19.1921 12.3082 19.2621C12.4132 19.2777 12.5182 19.2855 12.6232 19.301C13.5532 19.4021 14.1982 20.1566 14.1682 21.1132C14.1382 22.031 13.4407 22.7621 12.5182 22.7777C11.3182 22.801 10.1182 22.7855 8.91821 22.7932C8.82071 22.7932 8.69321 22.7621 8.62571 22.8088C8.49071 22.9177 8.30321 23.0655 8.29571 23.2055C8.28821 23.3455 8.46071 23.5166 8.58821 23.6332C8.65571 23.6955 8.80571 23.6721 8.91821 23.6721C10.3957 23.6721 11.8657 23.6799 13.3432 23.6644C13.5307 23.6644 13.7557 23.571 13.8982 23.4388C15.3007 22.1166 16.6882 20.7632 18.0907 19.441C19.0057 18.5777 20.3707 18.9977 20.6632 20.2188C20.7832 20.7166 20.6782 21.1755 20.3707 21.5721C19.0732 23.2366 17.7832 24.901 16.4707 26.5499C15.8632 27.3121 15.0532 27.7632 14.1157 27.9655C14.0332 27.981 13.9582 28.0199 13.8757 28.0432C9.47321 28.0432 5.07821 28.0432 0.675713 28.0432C0.668213 25.2277 0.668213 22.3966 0.668213 19.5732ZM1.53071 27.1566C1.61321 27.1644 1.66571 27.1799 1.71071 27.1799C5.59571 27.1799 9.48071 27.1877 13.3657 27.1721C14.3032 27.1644 15.1432 26.791 15.7507 26.0444C17.0782 24.3955 18.3757 22.7155 19.6807 21.0432C19.8832 20.7866 19.9057 20.4988 19.7407 20.211C19.4932 19.791 18.9982 19.7599 18.5857 20.1488C17.1307 21.5332 15.6832 22.9255 14.2282 24.3099C14.1082 24.4266 13.9357 24.5432 13.7857 24.5432C12.0607 24.5588 10.3357 24.5588 8.61071 24.551C8.09321 24.551 7.64321 24.1699 7.48571 23.6721C7.20071 22.7855 7.80071 21.9377 8.73821 21.9221C9.93821 21.9066 11.1382 21.9221 12.3382 21.9144C12.4882 21.9144 12.6457 21.9066 12.7807 21.8599C13.1482 21.7277 13.3732 21.3077 13.3132 20.9344C13.2382 20.491 12.9232 20.1955 12.4807 20.1955C11.2807 20.1877 10.0807 20.2032 8.88071 20.1799C8.68571 20.1799 8.46071 20.1021 8.29571 19.9855C7.00571 19.0599 5.64071 18.8888 4.17071 19.4566C3.31571 19.7832 2.52071 20.351 1.52321 20.1799C1.53071 22.521 1.53071 24.8232 1.53071 27.1566ZM18.5857 5.11436C18.8257 5.18436 19.0507 5.25436 19.2757 5.31658C20.0332 5.54214 20.4457 6.21103 20.2507 6.92658C20.0557 7.68103 19.3957 8.05436 18.6157 7.84436C17.4232 7.51769 16.2307 7.17547 15.0382 6.86436C14.3857 6.69325 13.8232 7.29991 14.0182 7.96103C14.1232 8.3188 14.3932 8.48991 14.7232 8.58325C15.8557 8.89436 16.9882 9.20547 18.1132 9.53214C18.2782 9.5788 18.4582 9.69547 18.5632 9.83547C19.5757 11.1032 20.8732 11.6244 22.4482 11.4766C23.3557 11.391 24.2557 11.0644 25.1782 11.5077C25.6957 9.50103 26.1982 7.55658 26.7082 5.5888C26.4982 5.52658 26.3257 5.45658 26.1457 5.42547C25.1332 5.21547 24.2182 4.78769 23.3557 4.18103C22.0207 3.23991 20.6482 2.3688 19.2907 1.47436C18.1282 0.712136 16.9357 0.751025 15.7207 1.63769C17.6632 1.95658 18.8632 2.90547 18.5857 5.11436ZM17.2957 6.5688C17.4607 5.9388 17.6332 5.36325 17.7532 4.77214C17.9257 3.89325 17.4457 3.02214 16.6282 2.78103C15.2182 2.36103 13.7932 1.97214 12.3682 1.5988C11.5432 1.3888 10.6807 1.89436 10.4482 2.73436C10.0807 4.04103 9.74321 5.34769 9.44321 6.66991C9.37571 6.94991 9.42821 7.36214 9.59321 7.57991C10.2982 8.51325 10.9057 9.58658 12.2407 9.69547C12.5557 9.7188 12.8857 9.81214 13.1782 9.95214C13.9582 10.3255 14.6407 10.0066 15.4132 9.67991C15.0382 9.57103 14.7382 9.47769 14.4307 9.39214C13.4557 9.10436 12.9382 8.1788 13.2007 7.20658C13.4482 6.27325 14.3632 5.76769 15.3382 6.02436C15.9757 6.20325 16.6132 6.38214 17.2957 6.5688ZM12.7282 10.7455C11.9857 13.6155 11.2582 16.431 10.5307 19.2621C11.3707 19.3477 11.3707 19.3477 11.5732 18.5855C12.0832 16.6021 12.6007 14.6188 13.1107 12.6355C13.2532 12.091 13.3882 11.5466 13.5307 10.971C13.2607 10.8932 13.0282 10.831 12.7282 10.7455ZM11.1532 13.4677C11.4157 12.4332 11.6632 11.4844 11.9107 10.5121C11.6182 10.4344 11.3782 10.3721 11.1007 10.3021C10.9057 11.0566 10.7182 11.7799 10.5382 12.4955C10.5232 12.5577 10.5457 12.651 10.5832 12.7055C10.7482 12.9388 10.9282 13.1721 11.1532 13.4677ZM18.1207 6.79436C18.4057 6.87991 18.6682 6.96547 18.9307 7.02769C19.1707 7.08214 19.3507 6.98103 19.4257 6.73214C19.5007 6.48325 19.4107 6.2888 19.1707 6.20325C18.9007 6.10991 18.6232 6.04769 18.3307 5.96214C18.2632 6.24991 18.1957 6.50658 18.1207 6.79436ZM10.2832 16.851C10.4332 16.2521 10.5607 15.7466 10.7032 15.1788C10.3882 15.311 10.1482 15.3966 9.92321 15.4977C9.66821 15.6144 9.57821 15.8944 9.73571 16.1277C9.88571 16.3455 10.0582 16.5555 10.2832 16.851ZM9.81821 18.4844C9.48071 18.8344 8.91821 18.671 8.79821 19.2466C9.64571 19.4021 9.66821 19.3866 9.81821 18.4844Z" fill="#A75CFF" stroke="#A75CFF" stroke-width="4" mask="url(#path-1-inside-1_1_195)"/>
<path d="M15.2257 4.31324C15.2107 5.03657 14.6557 5.59657 13.9432 5.5888C13.2532 5.58102 12.6832 4.98991 12.6907 4.27435C12.6982 3.54324 13.2832 2.95991 13.9957 2.97546C14.6932 2.9988 15.2332 3.58991 15.2257 4.31324ZM14.0632 3.79991C14.0032 3.79991 13.9432 3.79991 13.8832 3.79213C13.7707 3.94768 13.5982 4.08768 13.5607 4.26657C13.5082 4.53102 13.6807 4.70991 13.9507 4.71768C14.2057 4.72546 14.3857 4.56213 14.3557 4.32102C14.3407 4.13435 14.1682 3.97102 14.0632 3.79991Z" fill="#A75CFF"/>
<path d="M12.2107 6.09436C12.5857 6.14103 12.7432 6.31992 12.6907 6.60769C12.6007 7.06658 12.4807 7.50992 12.3532 7.95325C12.2782 8.20214 12.0532 8.31103 11.8507 8.20214C11.7082 8.12436 11.5507 7.88325 11.5657 7.74325C11.6332 7.28436 11.7607 6.83325 11.9107 6.39769C11.9557 6.25769 12.1282 6.17214 12.2107 6.09436Z" fill="#A75CFF"/>
</g>
<defs>
<clipPath id="clip0_1_195">
<rect width="27" height="28" fill="white" transform="translate(0.668213 0.0510254)"/>
</clipPath>
</defs>
</svg>
