<svg width="30" height="31" viewBox="0 0 30 31" fill="none" xmlns="http://www.w3.org/2000/svg">
<path d="M0.0219727 0.297363H29.7756V30.051H0.0219727V0.297363Z" fill="white" fill-opacity="0.01"/>
<path d="M2.50146 12.0533C2.86644 11.7075 3.24234 11.3797 3.62801 11.0702C10.5827 5.48827 20.7145 5.81599 27.2962 12.0533" stroke="#A75CFF" stroke-width="2" stroke-linecap="round" stroke-linejoin="round"/>
<path d="M23.577 16.2893C18.7842 11.4965 11.0135 11.4965 6.2207 16.2893" stroke="#A75CFF" stroke-width="2" stroke-linecap="round" stroke-linejoin="round"/>
<path d="M19.8577 20.3276C17.1189 17.5888 12.6786 17.5888 9.93982 20.3276" stroke="#A75CFF" stroke-width="2" stroke-linecap="round" stroke-linejoin="round"/>
<path fill-rule="evenodd" clip-rule="evenodd" d="M14.8988 25.0921C15.7546 25.0921 16.4485 24.3983 16.4485 23.5424C16.4485 22.6866 15.7546 21.9927 14.8988 21.9927C14.0429 21.9927 13.3491 22.6866 13.3491 23.5424C13.3491 24.3983 14.0429 25.0921 14.8988 25.0921Z" fill="#A75CFF"/>
</svg>
