<svg width="16" height="16" viewBox="0 0 16 16" fill="none" xmlns="http://www.w3.org/2000/svg">
<mask id="path-1-inside-1_1_2245" fill="white">
<path d="M7.40449 7.99075C6.79034 7.39889 6.26925 6.88101 5.74816 6.36313C4.09183 4.73551 2.4355 3.0894 0.797786 1.44328C0.704734 1.3693 0.574461 1.27682 0.555851 1.18434C0.51863 0.980888 0.462799 0.684957 0.574461 0.573983C0.686124 0.463009 0.98389 0.5 1.18861 0.536991C1.30027 0.555487 1.39332 0.703453 1.48637 0.814427C3.53352 2.84895 5.56205 4.88348 7.6092 6.918C7.72086 7.02898 7.81392 7.17694 7.94419 7.3619C8.13029 7.17694 8.26057 7.06597 8.37223 6.95499C10.4194 4.92047 12.4851 2.86745 14.5323 0.832922C14.6253 0.740444 14.7184 0.573983 14.83 0.555487C15.0348 0.518496 15.3325 0.481504 15.4256 0.592478C15.5372 0.703453 15.5 0.999383 15.4628 1.20284C15.4442 1.31381 15.2767 1.40629 15.1836 1.49877C13.1365 3.53329 11.108 5.56782 9.06081 7.58385C8.94915 7.69482 8.80027 7.7873 8.53972 7.99075C8.76305 8.13872 8.93054 8.2127 9.06081 8.34217C11.108 10.3767 13.1365 12.3927 15.1836 14.4273C15.2767 14.5197 15.407 14.5937 15.4256 14.6862C15.4628 14.9081 15.5372 15.1856 15.4442 15.3335C15.2767 15.5925 14.9975 15.5185 14.7556 15.3335C14.6625 15.2596 14.5881 15.1671 14.4951 15.0746C12.4665 13.0401 10.438 11.024 8.40945 9.00801C8.29779 8.89704 8.18612 8.74907 8.05585 8.60111C7.88836 8.74907 7.77669 8.86005 7.66503 8.97102C5.58066 11.024 3.51491 13.0771 1.46776 15.1116C1.37471 15.2041 1.28166 15.3705 1.16999 15.389C0.98389 15.426 0.704734 15.426 0.593071 15.3335C0.481409 15.2226 0.500019 14.9451 0.53724 14.7602C0.574461 14.6307 0.723344 14.5382 0.835007 14.4273C2.88215 12.3927 4.91069 10.3582 6.95784 8.34217C7.08811 8.2127 7.23699 8.12022 7.40449 7.99075Z"/>
</mask>
<path d="M7.40449 7.99075C6.79034 7.39889 6.26925 6.88101 5.74816 6.36313C4.09183 4.73551 2.4355 3.0894 0.797786 1.44328C0.704734 1.3693 0.574461 1.27682 0.555851 1.18434C0.51863 0.980888 0.462799 0.684957 0.574461 0.573983C0.686124 0.463009 0.98389 0.5 1.18861 0.536991C1.30027 0.555487 1.39332 0.703453 1.48637 0.814427C3.53352 2.84895 5.56205 4.88348 7.6092 6.918C7.72086 7.02898 7.81392 7.17694 7.94419 7.3619C8.13029 7.17694 8.26057 7.06597 8.37223 6.95499C10.4194 4.92047 12.4851 2.86745 14.5323 0.832922C14.6253 0.740444 14.7184 0.573983 14.83 0.555487C15.0348 0.518496 15.3325 0.481504 15.4256 0.592478C15.5372 0.703453 15.5 0.999383 15.4628 1.20284C15.4442 1.31381 15.2767 1.40629 15.1836 1.49877C13.1365 3.53329 11.108 5.56782 9.06081 7.58385C8.94915 7.69482 8.80027 7.7873 8.53972 7.99075C8.76305 8.13872 8.93054 8.2127 9.06081 8.34217C11.108 10.3767 13.1365 12.3927 15.1836 14.4273C15.2767 14.5197 15.407 14.5937 15.4256 14.6862C15.4628 14.9081 15.5372 15.1856 15.4442 15.3335C15.2767 15.5925 14.9975 15.5185 14.7556 15.3335C14.6625 15.2596 14.5881 15.1671 14.4951 15.0746C12.4665 13.0401 10.438 11.024 8.40945 9.00801C8.29779 8.89704 8.18612 8.74907 8.05585 8.60111C7.88836 8.74907 7.77669 8.86005 7.66503 8.97102C5.58066 11.024 3.51491 13.0771 1.46776 15.1116C1.37471 15.2041 1.28166 15.3705 1.16999 15.389C0.98389 15.426 0.704734 15.426 0.593071 15.3335C0.481409 15.2226 0.500019 14.9451 0.53724 14.7602C0.574461 14.6307 0.723344 14.5382 0.835007 14.4273C2.88215 12.3927 4.91069 10.3582 6.95784 8.34217C7.08811 8.2127 7.23699 8.12022 7.40449 7.99075Z" fill="black"/>
<path d="M7.40449 7.99075L9.23921 10.3643L11.9868 8.24045L9.48626 5.83061L7.40449 7.99075ZM5.74816 6.36313L7.86291 4.23526L7.8569 4.22929L7.85085 4.22335L5.74816 6.36313ZM0.797786 1.44328L2.92453 -0.672608L2.80142 -0.796342L2.6648 -0.904966L0.797786 1.44328ZM0.555851 1.18434L-2.39517 1.72422L-2.39041 1.75025L-2.38519 1.7762L0.555851 1.18434ZM1.18861 0.536991L0.655152 3.48918L0.676732 3.49308L0.698367 3.49666L1.18861 0.536991ZM1.48637 0.814427L-0.812437 2.74198L-0.724954 2.84632L-0.628379 2.9423L1.48637 0.814427ZM7.6092 6.918L5.49445 9.04587L7.6092 6.918ZM7.94419 7.3619L5.49151 9.08943L7.53808 11.9951L10.0589 9.48977L7.94419 7.3619ZM14.5323 0.832922L12.4175 -1.29495L14.5323 0.832922ZM14.83 0.555487L15.3203 3.51516L15.3419 3.51158L15.3635 3.50768L14.83 0.555487ZM15.4256 0.592478L13.1268 2.52004L13.2143 2.62437L13.3108 2.72035L15.4256 0.592478ZM15.4628 1.20284L12.5118 0.662958L12.5078 0.684782L12.5041 0.706663L15.4628 1.20284ZM15.1836 1.49877L13.0689 -0.629103L15.1836 1.49877ZM9.06081 7.58385L6.95578 5.44632L6.94606 5.45598L9.06081 7.58385ZM8.53972 7.99075L6.69335 5.62624L3.40956 8.19046L6.88274 10.4916L8.53972 7.99075ZM9.06081 8.34217L6.94606 10.47L9.06081 8.34217ZM15.1836 14.4273L13.0689 16.5551L15.1836 14.4273ZM15.4256 14.6862L18.3843 14.19L18.3762 14.142L18.3666 14.0943L15.4256 14.6862ZM15.4442 15.3335L17.9631 16.9629L17.9735 16.9468L17.9837 16.9306L15.4442 15.3335ZM14.7556 15.3335L12.8886 17.6818L12.9109 17.6995L12.9336 17.7169L14.7556 15.3335ZM14.4951 15.0746L12.3706 17.1928L12.3803 17.2025L14.4951 15.0746ZM8.05585 8.60111L10.3075 6.61868L8.32176 4.36324L6.06965 6.35277L8.05585 8.60111ZM7.66503 8.97102L9.77024 11.1084L9.77978 11.0989L7.66503 8.97102ZM1.16999 15.389L0.679757 12.4294L0.632308 12.4372L0.585135 12.4466L1.16999 15.389ZM0.593071 15.3335L-1.52168 17.4614L-1.42521 17.5573L-1.32047 17.644L0.593071 15.3335ZM0.53724 14.7602L-2.34598 13.9313L-2.37971 14.0486L-2.4038 14.1683L0.53724 14.7602ZM6.95784 8.34217L9.06287 10.4797L9.07259 10.47L6.95784 8.34217ZM9.48626 5.83061C8.89082 5.25677 8.38487 4.754 7.86291 4.23526L3.63341 8.491C4.15363 9.00802 4.68987 9.54101 5.32271 10.1509L9.48626 5.83061ZM7.85085 4.22335C6.20259 2.60365 4.55427 0.965497 2.92453 -0.672608L-1.32895 3.55917C0.316734 5.21329 1.98108 6.86738 3.64546 8.50291L7.85085 4.22335ZM2.6648 -0.904966C2.64202 -0.923076 2.61829 -0.941602 2.61084 -0.947437C2.59899 -0.95671 2.59812 -0.957443 2.60006 -0.955886C2.60064 -0.955424 2.64642 -0.919168 2.70843 -0.860622C2.76503 -0.80718 2.89358 -0.681029 3.03081 -0.488642C3.16165 -0.305193 3.39026 0.0626081 3.49689 0.592484L-2.38519 1.7762C-2.26925 2.35231 -2.01738 2.76635 -1.85397 2.99546C-1.68418 3.23351 -1.51375 3.40474 -1.41062 3.50211C-1.24107 3.66219 -1.00797 3.84023 -1.06923 3.79153L2.6648 -0.904966ZM3.50687 0.644462C3.47852 0.489492 3.50115 0.583771 3.5068 0.721377C3.50996 0.798477 3.51563 1.01962 3.45369 1.31111C3.39452 1.5896 3.22281 2.17155 2.68921 2.70185L-1.54029 -1.55389C-2.12972 -0.968093 -2.33632 -0.30754 -2.41527 0.0640091C-2.49698 0.448551 -2.49597 0.777201 -2.48815 0.967587C-2.47319 1.33177 -2.40404 1.67574 -2.39517 1.72422L3.50687 0.644462ZM2.68921 2.70185C2.19352 3.19449 1.66078 3.36627 1.40789 3.42871C1.13733 3.49552 0.929653 3.5 0.846639 3.5C0.684866 3.5 0.597106 3.47869 0.655152 3.48918L1.72206 -2.4152C1.57539 -2.4417 1.23639 -2.5 0.846639 -2.5C0.649635 -2.5 0.333786 -2.48627 -0.0304078 -2.39635C-0.376932 -2.31078 -0.988765 -2.10201 -1.54029 -1.55389L2.68921 2.70185ZM0.698367 3.49666C0.153953 3.40649 -0.236973 3.18098 -0.456994 3.02619C-0.673867 2.87362 -0.812331 2.72771 -0.864748 2.67065C-0.920277 2.61021 -0.954324 2.56562 -0.936281 2.58842C-0.933114 2.59242 -0.929899 2.59651 -0.923013 2.60525C-0.917132 2.61272 -0.908185 2.62408 -0.898495 2.63629C-0.879595 2.6601 -0.849033 2.69834 -0.812437 2.74198L3.78518 -1.11313C3.7982 -1.0976 3.82079 -1.06908 3.76886 -1.1347C3.7398 -1.17143 3.65806 -1.27498 3.55368 -1.38859C3.45241 -1.49882 3.26393 -1.69213 2.9953 -1.88112C2.72352 -2.07231 2.27909 -2.32326 1.67884 -2.42268L0.698367 3.49666ZM-0.628379 2.9423C0.392368 3.95675 1.40887 4.9716 2.42819 5.98926C3.44672 7.00613 4.46805 8.0258 5.49445 9.04587L9.72395 4.79013C8.7032 3.77568 7.6867 2.76083 6.66738 1.74317C5.64886 0.726303 4.62752 -0.293372 3.60112 -1.31344L-0.628379 2.9423ZM5.49445 9.04587C5.43424 8.98603 5.3917 8.93631 5.36773 8.90699C5.35556 8.89211 5.347 8.88103 5.34251 8.87513C5.33806 8.86929 5.33658 8.86716 5.33882 8.87026C5.34111 8.87343 5.34574 8.87989 5.35386 8.89149C5.36215 8.90331 5.37192 8.91738 5.38539 8.93684C5.3923 8.94684 5.39866 8.95604 5.40677 8.96778C5.41444 8.97886 5.42287 8.99105 5.43168 9.00376C5.44932 9.02919 5.46952 9.05821 5.49151 9.08943L10.3969 5.63437C10.3737 5.60148 10.3534 5.57205 10.3198 5.52339C10.2907 5.48136 10.2476 5.41911 10.2006 5.35416C10.1105 5.22962 9.94909 5.01388 9.72395 4.79013L5.49445 9.04587ZM10.0589 9.48977C10.1154 9.43361 10.165 9.38699 10.2263 9.33017C10.2745 9.28547 10.3846 9.1846 10.487 9.08286L6.25748 4.82712C6.25821 4.8264 6.25231 4.83228 6.23249 4.85085C6.20948 4.87244 6.18868 4.89159 6.14594 4.93123C6.06762 5.00388 5.95903 5.10523 5.82944 5.23403L10.0589 9.48977ZM10.487 9.08286C11.5106 8.0656 12.5388 7.04371 13.567 6.02183C14.5952 4.99994 15.6235 3.97805 16.647 2.96079L12.4175 -1.29495C11.394 -0.277685 10.3657 0.744202 9.3375 1.76609C8.30928 2.78798 7.28105 3.80986 6.25748 4.82712L10.487 9.08286ZM16.647 2.96079C16.7925 2.8162 16.9025 2.67953 16.9278 2.64847C16.9867 2.57629 16.9512 2.62004 16.9258 2.64889C16.8958 2.68297 16.7689 2.82713 16.5637 2.98289C16.3608 3.13701 15.9385 3.41276 15.3203 3.51516L14.3398 -2.40419C13.6658 -2.29254 13.19 -1.98905 12.9353 -1.79562C12.6784 -1.60056 12.5014 -1.40554 12.4225 -1.31596C12.3769 -1.26417 12.3397 -1.21914 12.3175 -1.19204C12.3061 -1.17812 12.2958 -1.16549 12.2895 -1.15772C12.2818 -1.14817 12.2795 -1.14533 12.2769 -1.14215C12.2551 -1.11541 12.3186 -1.19659 12.4175 -1.29495L16.647 2.96079ZM15.3635 3.50768C15.4246 3.49664 15.3354 3.5185 15.1697 3.5185C15.0878 3.5185 14.8597 3.51465 14.563 3.43706C14.292 3.36618 13.6588 3.15457 13.1268 2.52004L17.7244 -1.33508C17.1458 -2.0251 16.4405 -2.2737 16.0811 -2.3677C15.696 -2.46841 15.3633 -2.4815 15.1697 -2.4815C14.7807 -2.4815 14.4402 -2.42265 14.2966 -2.3967L15.3635 3.50768ZM13.3108 2.72035C12.8136 2.22616 12.6378 1.69179 12.5733 1.43363C12.5047 1.15933 12.5 0.948206 12.5 0.862983C12.5 0.697088 12.5222 0.605967 12.5118 0.662958L18.4138 1.74271C18.4406 1.59625 18.5 1.25544 18.5 0.862972C18.5 0.664464 18.486 0.345838 18.3942 -0.0215265C18.3064 -0.372736 18.0934 -0.985712 17.5403 -1.53539L13.3108 2.72035ZM12.5041 0.706663C12.609 0.0813803 12.8908 -0.343687 13.046 -0.545578C13.2034 -0.750265 13.3487 -0.876591 13.3825 -0.906034C13.4114 -0.931135 13.4552 -0.966119 13.3827 -0.90777C13.3516 -0.882719 13.2143 -0.773584 13.0689 -0.629103L17.2984 3.62664C17.1995 3.72488 17.1181 3.78777 17.1451 3.76601C17.1483 3.76342 17.1512 3.76112 17.1608 3.75344C17.1686 3.74718 17.1813 3.73702 17.1953 3.7257C17.2225 3.70368 17.2677 3.66674 17.3197 3.62151C17.4094 3.54351 17.6059 3.36748 17.8028 3.11135C17.9976 2.85802 18.3073 2.37978 18.4215 1.69901L12.5041 0.706663ZM13.0689 -0.629103C11.008 1.41909 8.99725 3.43592 6.9558 5.44634L11.1658 9.72135C13.2187 7.69971 15.265 5.64749 17.2984 3.62664L13.0689 -0.629103ZM6.94606 5.45598C7.00685 5.39557 7.0551 5.35523 7.07516 5.33891C7.09186 5.32532 7.09546 5.32327 7.06322 5.34729C7.01545 5.3829 6.85898 5.4969 6.69335 5.62624L10.3861 10.3553C10.481 10.2811 10.5293 10.2472 10.649 10.1579C10.7375 10.0919 10.9548 9.93114 11.1756 9.71172L6.94606 5.45598ZM6.88274 10.4916C6.98627 10.5602 7.07698 10.616 7.14279 10.6559C7.15915 10.6658 7.17444 10.675 7.18762 10.6829C7.19417 10.6868 7.20062 10.6907 7.20632 10.6941C7.21222 10.6977 7.21739 10.7008 7.2224 10.7038C7.24344 10.7165 7.25295 10.7222 7.25842 10.7256C7.26325 10.7286 7.25765 10.7252 7.24581 10.7174C7.23367 10.7094 7.21199 10.6948 7.18401 10.6743C7.12676 10.6324 7.04146 10.5648 6.94606 10.47L11.1756 6.2143C10.8611 5.90179 10.5502 5.70658 10.4119 5.62117C10.3579 5.58781 10.2594 5.52879 10.2513 5.52389C10.2188 5.50421 10.2048 5.49526 10.1967 5.48987L6.88274 10.4916ZM6.94606 10.47C7.96964 11.4873 8.98856 12.4999 10.0075 13.5126C11.0264 14.5252 12.0453 15.5379 13.0689 16.5551L17.2984 12.2994C16.2748 11.2821 15.2559 10.2695 14.237 9.25684C13.2181 8.2442 12.1991 7.23156 11.1756 6.2143L6.94606 10.47ZM13.0689 16.5551C13.189 16.6745 13.2979 16.7653 13.3343 16.7957C13.404 16.8539 13.3592 16.8166 13.3325 16.7928C13.2986 16.7624 13.1582 16.6368 13.0062 16.4372C12.852 16.2346 12.5982 15.8431 12.4845 15.278L18.3666 14.0943C18.2436 13.4831 17.9666 13.0476 17.7798 12.8023C17.5953 12.5599 17.413 12.3926 17.3326 12.3207C17.2859 12.279 17.2456 12.245 17.2228 12.2259C17.211 12.216 17.2002 12.207 17.194 12.2019C17.1864 12.1955 17.184 12.1935 17.1819 12.1918C17.1671 12.1794 17.2248 12.2263 17.2984 12.2994L13.0689 16.5551ZM12.4669 15.1824C12.4762 15.2377 12.4855 15.2879 12.4915 15.3203C12.499 15.3606 12.5015 15.374 12.5051 15.3937C12.512 15.432 12.505 15.3996 12.4988 15.338C12.4933 15.2833 12.4777 15.1101 12.5037 14.8735C12.5293 14.6407 12.61 14.2049 12.9046 13.7365L17.9837 16.9306C18.3249 16.3882 18.4312 15.8623 18.4678 15.5288C18.5049 15.1917 18.4858 14.9075 18.4687 14.7373C18.4508 14.56 18.424 14.4074 18.4094 14.3266C18.4023 14.2868 18.3936 14.2409 18.3903 14.223C18.388 14.2109 18.3866 14.2029 18.3855 14.1969C18.3844 14.191 18.3841 14.1891 18.3843 14.19L12.4669 15.1824ZM12.9252 13.7042C13.1313 13.3856 13.4674 13.0294 13.9649 12.7822C14.4622 12.5351 14.9571 12.4782 15.3565 12.5087C16.0604 12.5625 16.4833 12.8781 16.5776 12.9502L12.9336 17.7169C13.2698 17.9739 13.9533 18.419 14.8991 18.4913C16.121 18.5847 17.2848 18.0116 17.9631 16.9629L12.9252 13.7042ZM16.6226 12.9853C16.6847 13.0347 16.731 13.077 16.759 13.1037C16.7731 13.1172 16.7836 13.1276 16.7897 13.1338C16.7956 13.1398 16.7985 13.1428 16.7968 13.141C16.7948 13.1389 16.7909 13.1348 16.7816 13.1249C16.7794 13.1226 16.7771 13.1201 16.7745 13.1173C16.7719 13.1146 16.769 13.1114 16.766 13.1083C16.76 13.1019 16.7528 13.0942 16.7451 13.086C16.7297 13.0697 16.71 13.0489 16.6877 13.0258C16.6652 13.0026 16.6391 12.9758 16.6098 12.9467L12.3803 17.2025C12.3695 17.1917 12.3658 17.1875 12.3788 17.2013C12.3865 17.2095 12.3918 17.2152 12.4061 17.2304C12.4179 17.243 12.4349 17.2611 12.4539 17.281C12.5234 17.3539 12.6783 17.5146 12.8886 17.6818L16.6226 12.9853ZM16.6195 12.9564C14.5853 10.9162 12.5519 8.89539 10.5242 6.88015L6.2947 11.1359C8.32403 13.1527 10.3477 15.1639 12.3706 17.1928L16.6195 12.9564ZM10.5242 6.88015C10.5396 6.89542 10.551 6.90743 10.5581 6.91499C10.5652 6.92256 10.5691 6.92703 10.5694 6.92734C10.5697 6.92764 10.5675 6.92514 10.562 6.91874C10.5564 6.91227 10.549 6.90348 10.5384 6.89088C10.5275 6.87787 10.516 6.86402 10.5005 6.84542C10.486 6.82806 10.468 6.8064 10.4492 6.78395C10.4114 6.73887 10.3627 6.68135 10.3075 6.61868L5.80419 10.5835C5.83745 10.6213 5.85167 10.6397 5.94082 10.746C6.00397 10.8213 6.1346 10.9768 6.2947 11.1359L10.5242 6.88015ZM6.06965 6.35277C5.83227 6.56248 5.66846 6.7257 5.55028 6.84315L9.77978 11.0989C9.88493 10.9944 9.94445 10.9357 10.042 10.8494L6.06965 6.35277ZM5.55984 6.83369C3.4699 8.89221 1.39939 10.95 -0.646989 12.9837L3.58251 17.2395C5.63043 15.2042 7.69143 13.1559 9.77022 11.1084L5.55984 6.83369ZM-0.646989 12.9837C-0.792478 13.1283 -0.902475 13.265 -0.927784 13.296C-0.98661 13.3682 -0.951207 13.3245 -0.925806 13.2956C-0.895797 13.2615 -0.768819 13.1174 -0.563699 12.9616C-0.360726 12.8075 0.0615679 12.5317 0.679757 12.4294L1.66023 18.3487C2.33425 18.2371 2.81005 17.9336 3.06478 17.7401C3.32166 17.5451 3.49866 17.35 3.57752 17.2605C3.62312 17.2087 3.66036 17.1637 3.68257 17.1366C3.69398 17.1226 3.70422 17.11 3.71052 17.1022C3.71826 17.0927 3.72056 17.0898 3.72315 17.0867C3.74495 17.0599 3.68147 17.1411 3.58251 17.2395L-0.646989 12.9837ZM0.585135 12.4466C0.733905 12.417 0.879587 12.4052 1.04766 12.4161C1.13626 12.4219 1.29927 12.4382 1.50634 12.4957C1.68719 12.5459 2.08992 12.6779 2.50661 13.023L-1.32047 17.644C-0.487922 18.3335 0.446793 18.3898 0.659575 18.4036C1.04167 18.4283 1.41998 18.398 1.75485 18.3315L0.585135 12.4466ZM2.70782 13.2057C3.14623 13.6414 3.32855 14.1051 3.40505 14.3596C3.48474 14.6248 3.50176 14.8362 3.50646 14.9435C3.51559 15.1522 3.49066 15.2905 3.47828 15.352L-2.4038 14.1683C-2.4534 14.4148 -2.50624 14.7843 -2.48781 15.2057C-2.47716 15.4491 -2.4291 16.5596 -1.52168 17.4614L2.70782 13.2057ZM3.42046 15.5891C3.30849 15.9785 3.13428 16.2638 3.00477 16.4408C2.87958 16.6119 2.76591 16.7223 2.72722 16.7591C2.69393 16.7908 2.66194 16.818 2.71519 16.7717C2.74372 16.7468 2.84297 16.6613 2.94976 16.5551L-1.27974 12.2994C-1.22879 12.2487 -1.19002 12.2163 -1.22198 12.2441C-1.22921 12.2504 -1.32168 12.3295 -1.4108 12.4144C-1.55036 12.5473 -2.09666 13.0641 -2.34598 13.9313L3.42046 15.5891ZM2.94976 16.5551C5.01066 14.5069 7.0214 12.4901 9.06285 10.4797L4.85282 6.20467C2.79998 8.22631 0.753647 10.2785 -1.27974 12.2994L2.94976 16.5551ZM9.07259 10.47C8.98882 10.5533 8.92714 10.5963 8.96008 10.5718C8.96727 10.5664 8.97718 10.5591 8.99325 10.5474C9.00128 10.5415 9.00951 10.5355 9.01968 10.5281C9.02935 10.5211 9.04067 10.5128 9.05239 10.5043C9.09878 10.4704 9.16515 10.4216 9.23921 10.3643L5.56976 5.61719C5.56007 5.62468 5.54503 5.63599 5.51232 5.65989C5.48994 5.67625 5.42669 5.7221 5.37433 5.76114C5.25838 5.84756 5.05712 6.00159 4.84309 6.2143L9.07259 10.47Z" fill="black" mask="url(#path-1-inside-1_1_2245)"/>
</svg>
