<svg width="20" height="24" viewBox="0 0 20 24" fill="none" xmlns="http://www.w3.org/2000/svg">
<path d="M10 0C5.83333 0 2.5 3 2.5 6.75V9.75C1.08333 9.75 0 10.725 0 12V21.75C0 23.025 1.08333 24 2.5 24H17.5C18.9167 24 20 23.025 20 21.75V12C20 10.725 18.9167 9.75 17.5 9.75V6.75C17.5 3 14.1667 0 10 0ZM18.3333 12V21.75C18.3333 22.2 18 22.5 17.5 22.5H2.5C2 22.5 1.66667 22.2 1.66667 21.75V12C1.66667 11.55 2 11.25 2.5 11.25H17.5C18 11.25 18.3333 11.55 18.3333 12ZM4.16667 9.75V6.75C4.16667 3.825 6.75 1.5 10 1.5C13.25 1.5 15.8333 3.825 15.8333 6.75V9.75H4.16667Z" fill="#A75CFF"/>
<path d="M10 13C8.58333 13 7.5 14.0833 7.5 15.5C7.5 16.5833 8.16667 17.5 9.16667 17.8333V19.6667C9.16667 20.1667 9.5 20.5 10 20.5C10.5 20.5 10.8333 20.1667 10.8333 19.6667V17.8333C11.8333 17.5 12.5 16.5833 12.5 15.5C12.5 14.0833 11.4167 13 10 13ZM10 16.3333C9.5 16.3333 9.16667 16 9.16667 15.5C9.16667 15 9.5 14.6667 10 14.6667C10.5 14.6667 10.8333 15 10.8333 15.5C10.8333 16 10.5 16.3333 10 16.3333Z" fill="#A75CFF"/>
</svg>
