<svg width="18" height="18" viewBox="0 0 18 18" fill="none" xmlns="http://www.w3.org/2000/svg">
<path d="M13.932 10.9334C13.7162 11.1426 13.617 11.4451 13.6662 11.7417L14.407 15.8417C14.4695 16.1892 14.3228 16.5409 14.032 16.7417C13.747 16.9501 13.3678 16.9751 13.057 16.8084L9.36616 14.8834C9.23782 14.8151 9.09532 14.7784 8.94949 14.7742H8.72366C8.64532 14.7859 8.56866 14.8109 8.49866 14.8492L4.80699 16.7834C4.62449 16.8751 4.41782 16.9076 4.21532 16.8751C3.72199 16.7817 3.39282 16.3117 3.47366 15.8159L4.21532 11.7159C4.26449 11.4167 4.16532 11.1126 3.94949 10.9001L0.940323 7.9834C0.688656 7.73924 0.601156 7.37257 0.716156 7.04174C0.827823 6.71174 1.11282 6.4709 1.45699 6.41674L5.59866 5.8159C5.91366 5.7834 6.19032 5.59174 6.33199 5.3084L8.15699 1.56674C8.20032 1.4834 8.25616 1.40674 8.32366 1.34174L8.39866 1.2834C8.43782 1.24007 8.48282 1.20424 8.53282 1.17507L8.62366 1.14174L8.76532 1.0834H9.11616C9.42949 1.1159 9.70532 1.3034 9.84949 1.5834L11.6987 5.3084C11.832 5.5809 12.0912 5.77007 12.3903 5.8159L16.532 6.41674C16.882 6.46674 17.1745 6.7084 17.2903 7.04174C17.3995 7.3759 17.3053 7.74257 17.0487 7.9834L13.932 10.9334Z" stroke="#A75CFF"/>
</svg>
