<svg width="17" height="17" viewBox="0 0 17 17" fill="none" xmlns="http://www.w3.org/2000/svg">
<path d="M12.6923 10.1434C12.5088 10.3212 12.4245 10.5783 12.4663 10.8305L13.096 14.3155C13.1491 14.6109 13.0245 14.9098 12.7773 15.0805C12.535 15.2576 12.2127 15.2788 11.9485 15.1372L8.81129 13.5009C8.70221 13.4428 8.58109 13.4117 8.45713 13.4081H8.26517C8.19859 13.418 8.13342 13.4393 8.07392 13.4719L4.936 15.1159C4.78088 15.1938 4.60521 15.2214 4.43309 15.1938C4.01375 15.1145 3.73396 14.715 3.80267 14.2935L4.43309 10.8085C4.47488 10.5542 4.39059 10.2957 4.20713 10.1151L1.64934 7.63591C1.43542 7.42836 1.36104 7.1167 1.45879 6.83549C1.55371 6.55499 1.79596 6.35028 2.0885 6.30424L5.60892 5.79353C5.87667 5.76591 6.11184 5.60299 6.23225 5.36216L7.7835 2.18174C7.82034 2.11091 7.86779 2.04574 7.92517 1.99049L7.98892 1.94091C8.02221 1.90407 8.06046 1.87361 8.10296 1.84882L8.18017 1.82049L8.30059 1.77091H8.59879C8.86513 1.79853 9.09959 1.95791 9.22213 2.19591L10.7939 5.36216C10.9073 5.59378 11.1275 5.75457 11.3818 5.79353L14.9023 6.30424C15.1998 6.34674 15.4484 6.55216 15.5468 6.83549C15.6396 7.11953 15.5596 7.4312 15.3414 7.63591L12.6923 10.1434Z" fill="#A75CFF"/>
</svg>
