<svg width="25" height="25" viewBox="0 0 25 25" fill="none" xmlns="http://www.w3.org/2000/svg">
<path d="M22.9356 19.0998C22.9356 19.4598 22.8556 19.8298 22.6856 20.1898C22.5156 20.5498 22.2956 20.8898 22.0056 21.2098C21.5156 21.7498 20.9756 22.1398 20.3656 22.3898C19.7656 22.6398 19.1156 22.7698 18.4156 22.7698C17.3956 22.7698 16.3056 22.5298 15.1556 22.0398C14.0056 21.5498 12.8556 20.8898 11.7156 20.0598C10.5656 19.2198 9.47558 18.2898 8.43558 17.2598C7.40558 16.2198 6.47558 15.1298 5.64558 13.9898C4.82558 12.8498 4.16558 11.7098 3.68558 10.5798C3.20558 9.43984 2.96558 8.34984 2.96558 7.30984C2.96558 6.62984 3.08558 5.97984 3.32558 5.37984C3.56558 4.76984 3.94558 4.20984 4.47558 3.70984C5.11558 3.07984 5.81558 2.76984 6.55558 2.76984C6.83558 2.76984 7.11558 2.82984 7.36558 2.94984C7.62558 3.06984 7.85558 3.24984 8.03558 3.50984L10.3556 6.77984C10.5356 7.02984 10.6656 7.25984 10.7556 7.47984C10.8456 7.68984 10.8956 7.89984 10.8956 8.08984C10.8956 8.32984 10.8256 8.56984 10.6856 8.79984C10.5556 9.02984 10.3656 9.26984 10.1256 9.50984L9.36558 10.2998C9.25558 10.4098 9.20558 10.5398 9.20558 10.6998C9.20558 10.7798 9.21558 10.8498 9.23558 10.9298C9.26558 11.0098 9.29558 11.0698 9.31558 11.1298C9.49558 11.4598 9.80558 11.8898 10.2456 12.4098C10.6956 12.9298 11.1756 13.4598 11.6956 13.9898C12.2356 14.5198 12.7556 15.0098 13.2856 15.4598C13.8056 15.8998 14.2356 16.1998 14.5756 16.3798C14.6256 16.3998 14.6856 16.4298 14.7556 16.4598C14.8356 16.4898 14.9156 16.4998 15.0056 16.4998C15.1756 16.4998 15.3056 16.4398 15.4156 16.3298L16.1756 15.5798C16.4256 15.3298 16.6656 15.1398 16.8956 15.0198C17.1256 14.8798 17.3556 14.8098 17.6056 14.8098C17.7956 14.8098 17.9956 14.8498 18.2156 14.9398C18.4356 15.0298 18.6656 15.1598 18.9156 15.3298L22.2256 17.6798C22.4856 17.8598 22.6656 18.0698 22.7756 18.3198C22.8756 18.5698 22.9356 18.8198 22.9356 19.0998Z" stroke="#A75CFF" stroke-width="2" stroke-miterlimit="10"/>
</svg>
