<svg width="100" height="100" viewBox="0 0 100 100" fill="none" xmlns="http://www.w3.org/2000/svg">
<rect width="100" height="100" rx="17" fill="#E2E2E2"/>
<path d="M29 49.8939L41.3689 49.8476C42.915 49.8476 44.6467 51.1671 45.2239 52.7874L47.574 59.4541C48.11 60.9587 48.9552 60.9587 49.4912 59.4541L54.212 46.005C54.6655 44.7087 55.5107 44.6624 56.0879 45.8893L58.2319 50.4495C58.8709 51.8152 60.5201 52.9263 61.8807 52.9263H70.2503" stroke="#A75CFF" stroke-width="2" stroke-linecap="round" stroke-linejoin="round"/>
<path d="M43.4304 73.2963H55.7993C66.1067 73.2963 70.2297 68.6667 70.2297 57.0926V43.2037C70.2297 31.6296 66.1067 27 55.7993 27H43.4304C33.123 27 29 31.6296 29 43.2037V57.0926C29 68.6667 33.123 73.2963 43.4304 73.2963Z" stroke="#A75CFF" stroke-width="2" stroke-linecap="round" stroke-linejoin="round"/>
</svg>
