<svg width="98" height="82" viewBox="0 0 98 82" fill="none" xmlns="http://www.w3.org/2000/svg">
<rect width="98" height="82" rx="17" fill="#E2E2E2"/>
<path d="M42.7846 60.0139H54.6807C64.5941 60.0139 68.5594 56.1945 68.5594 46.6458V35.1875C68.5594 25.6389 64.5941 21.8195 54.6807 21.8195H42.7846C32.8712 21.8195 28.9059 25.6389 28.9059 35.1875V46.6458C28.9059 56.1945 32.8712 60.0139 42.7846 60.0139Z" stroke="#A75CFF" stroke-width="2" stroke-linecap="round" stroke-linejoin="round"/>
<path d="M28.9059 42.2535L40.802 42.2153C42.289 42.2153 43.9544 43.3038 44.5096 44.6406L46.7698 50.1406C47.2853 51.382 48.0982 51.382 48.6137 50.1406L53.154 39.0452C53.5902 37.9757 54.4031 37.9375 54.9583 38.9497L57.0203 42.7118C57.6349 43.8386 59.221 44.7552 60.5296 44.7552H68.5793" stroke="#A75CFF" stroke-width="2" stroke-linecap="round" stroke-linejoin="round"/>
</svg>
