<svg width="26" height="28" viewBox="0 0 26 28" fill="none" xmlns="http://www.w3.org/2000/svg">
<path d="M13.125 26.138C19.8215 26.138 25.25 20.7095 25.25 14.013C25.25 7.31655 19.8215 1.888 13.125 1.888C6.42855 1.888 1 7.31655 1 14.013C1 20.7095 6.42855 26.138 13.125 26.138Z" stroke="#A75CFF" stroke-width="1.5" stroke-linecap="square"/>
<path d="M13.1249 26.138C16.3582 23.1986 17.9749 19.1569 17.9749 14.013C17.9749 8.86906 16.3582 4.82739 13.1249 1.888C9.89157 4.82739 8.2749 8.86906 8.2749 14.013C8.2749 19.1569 9.89157 23.1986 13.1249 26.138Z" stroke="#A75CFF" stroke-width="1.5" stroke-linecap="round"/>
<path d="M1.6062 10.3755H24.6437M1.6062 17.6505H24.6437" stroke="#A75CFF" stroke-width="1.5" stroke-linecap="round"/>
</svg>
