<svg width="31" height="31" viewBox="0 0 31 31" fill="none" xmlns="http://www.w3.org/2000/svg">
<path d="M27.0223 5.56665H3.37785C2.92993 5.56665 2.50036 5.74459 2.18363 6.06131C1.8669 6.37804 1.68896 6.80762 1.68896 7.25554V24.1444C1.68896 24.5924 1.8669 25.0219 2.18363 25.3387C2.50036 25.6554 2.92993 25.8333 3.37785 25.8333H16.0445L16.5259 25.2422L17.3112 24.2795L17.2352 24.1444H3.37785V7.25554H27.0223V14.484C27.6638 14.8993 28.2341 15.4154 28.7112 16.0124V7.25554C28.7112 6.80762 28.5333 6.37804 28.2165 6.06131C27.8998 5.74459 27.4702 5.56665 27.0223 5.56665Z" fill="#A75CFF"/>
<path d="M5.91113 10.6333H20.2667V11.9844H5.91113V10.6333Z" fill="#A75CFF"/>
<path d="M5.91113 14.0111H15.2V15.3622H5.91113V14.0111Z" fill="#A75CFF"/>
<path d="M5.91113 19.9222H14.3556V21.2734H5.91113V19.9222Z" fill="#A75CFF"/>
<path d="M23.1885 15.0498C22.1079 15.0412 21.0498 15.3588 20.1525 15.9611C19.2553 16.5634 18.5606 17.4223 18.1593 18.4257C17.7579 19.429 17.6686 20.5301 17.903 21.585C18.1373 22.64 18.6845 23.5996 19.4729 24.3387L17.8347 26.34L18.5947 29.3885L21.6853 25.6222C22.6637 25.9115 23.7048 25.9115 24.6831 25.6222L27.7738 29.3885L28.5338 26.34L26.8956 24.3387C27.684 23.5996 28.2311 22.64 28.4655 21.585C28.6999 20.5301 28.6105 19.429 28.2092 18.4257C27.8079 17.4223 27.1132 16.5634 26.2159 15.9611C25.3187 15.3588 24.2606 15.0412 23.18 15.0498H23.1885ZM23.1885 24.0685C22.4709 24.0585 21.7722 23.8365 21.1804 23.4306C20.5886 23.0247 20.13 22.4528 19.8623 21.787C19.5946 21.1211 19.5297 20.3909 19.6758 19.6883C19.8219 18.9857 20.1725 18.3419 20.6834 17.838C21.1944 17.334 21.8429 16.9924 22.5475 16.856C23.2521 16.7196 23.9813 16.7946 24.6434 17.0715C25.3055 17.3484 25.8709 17.8149 26.2687 18.4122C26.6664 19.0096 26.8786 19.7112 26.8787 20.4289C26.8698 21.4002 26.4765 22.3284 25.7849 23.0105C25.0934 23.6926 24.1598 24.073 23.1885 24.0685Z" fill="#A75CFF"/>
</svg>
