<svg width="20" height="21" viewBox="0 0 20 21" fill="none" xmlns="http://www.w3.org/2000/svg">
<g id="edit-2">
<path id="Icon" d="M14.1667 2.81231C14.3856 2.59344 14.6455 2.41982 14.9314 2.30137C15.2174 2.18292 15.5239 2.12196 15.8334 2.12196C16.1429 2.12196 16.4494 2.18292 16.7354 2.30137C17.0214 2.41982 17.2812 2.59344 17.5001 2.81231C17.719 3.03118 17.8926 3.29102 18.011 3.57698C18.1295 3.86295 18.1904 4.16945 18.1904 4.47898C18.1904 4.78851 18.1295 5.095 18.011 5.38097C17.8926 5.66694 17.719 5.92678 17.5001 6.14564L6.25008 17.3956L1.66675 18.6456L2.91675 14.0623L14.1667 2.81231Z" stroke="#667085" stroke-width="1.66667" stroke-linecap="round" stroke-linejoin="round"/>
</g>
</svg>
