<svg width="100" height="100" viewBox="0 0 100 100" fill="none" xmlns="http://www.w3.org/2000/svg">
<rect x="0.5" y="0.5" width="99" height="99" rx="16.5" fill="#F8F8F8" stroke="#C2D1D9"/>
<path d="M61.3447 40.5062V35.1173C61.3447 32.1411 59.2024 29.7284 56.5598 29.7284H32.635C29.9924 29.7284 27.8501 32.1411 27.8501 35.1173V51.284C27.8501 54.2602 29.9924 56.6728 32.635 56.6728H37.42M42.2049 67.4506H66.1297C68.7723 67.4506 70.9146 65.0379 70.9146 62.0617V45.8951C70.9146 42.9189 68.7723 40.5062 66.1297 40.5062H42.2049C39.5623 40.5062 37.42 42.9189 37.42 45.8951V62.0617C37.42 65.0379 39.5623 67.4506 42.2049 67.4506ZM58.9522 53.9784C58.9522 56.9546 56.81 59.3673 54.1673 59.3673C51.5246 59.3673 49.3824 56.9546 49.3824 53.9784C49.3824 51.0022 51.5246 48.5895 54.1673 48.5895C56.81 48.5895 58.9522 51.0022 58.9522 53.9784Z" stroke="#A5A4A4" stroke-width="3" stroke-linecap="round" stroke-linejoin="round"/>
</svg>
