<svg width="63" height="11" viewBox="0 0 63 11" fill="none" xmlns="http://www.w3.org/2000/svg">
<path d="M8.21265 6.56338C8.09395 6.67842 8.0394 6.8448 8.06645 7.00797L8.47391 9.26296C8.50828 9.45409 8.42761 9.64751 8.26765 9.75797C8.1109 9.87255 7.90236 9.8863 7.7314 9.79463L5.70145 8.73588C5.63086 8.6983 5.55249 8.67813 5.47228 8.67584H5.34807C5.30499 8.68226 5.26282 8.69601 5.22432 8.71709L3.19391 9.78088C3.09353 9.8313 2.97986 9.84917 2.86849 9.8313C2.59716 9.77997 2.41611 9.52147 2.46057 9.24876L2.86849 6.99376C2.89553 6.82922 2.84099 6.66192 2.72228 6.54505L1.06724 4.94088C0.928822 4.80659 0.880697 4.60492 0.943947 4.42297C1.00536 4.24147 1.16211 4.10901 1.35141 4.07922L3.62932 3.74876C3.80257 3.73088 3.95474 3.62547 4.03266 3.46963L5.0364 1.41171C5.06024 1.36588 5.09095 1.32371 5.12807 1.28796L5.16932 1.25588C5.19086 1.23205 5.21561 1.21234 5.24311 1.1963L5.29307 1.17796L5.37099 1.14588H5.56395C5.73628 1.16376 5.88799 1.26688 5.96728 1.42088L6.98432 3.46963C7.05765 3.61951 7.2002 3.72355 7.36474 3.74876L9.64265 4.07922C9.83515 4.10672 9.99603 4.23963 10.0597 4.42297C10.1198 4.60676 10.068 4.80842 9.92682 4.94088L8.21265 6.56338Z" fill="#A75CFF"/>
<path d="M21.1541 6.56338C21.0354 6.67842 20.9808 6.8448 21.0079 7.00797L21.4153 9.26296C21.4497 9.45409 21.369 9.64751 21.2091 9.75797C21.0523 9.87255 20.8438 9.8863 20.6728 9.79463L18.6429 8.73588C18.5723 8.6983 18.4939 8.67813 18.4137 8.67584H18.2895C18.2464 8.68226 18.2042 8.69601 18.1657 8.71709L16.1353 9.78088C16.0349 9.8313 15.9213 9.84917 15.8099 9.8313C15.5386 9.77997 15.3575 9.52147 15.402 9.24876L15.8099 6.99376C15.8369 6.82922 15.7824 6.66192 15.6637 6.54505L14.0086 4.94088C13.8702 4.80659 13.8221 4.60492 13.8854 4.42297C13.9468 4.24147 14.1035 4.10901 14.2928 4.07922L16.5707 3.74876C16.744 3.73088 16.8961 3.62547 16.9741 3.46963L17.9778 1.41171C18.0016 1.36588 18.0324 1.32371 18.0695 1.28796L18.1107 1.25588C18.1323 1.23205 18.157 1.21234 18.1845 1.1963L18.2345 1.17796L18.3124 1.14588H18.5054C18.6777 1.16376 18.8294 1.26688 18.9087 1.42088L19.9257 3.46963C19.9991 3.61951 20.1416 3.72355 20.3061 3.74876L22.5841 4.07922C22.7766 4.10672 22.9374 4.23963 23.0011 4.42297C23.0612 4.60676 23.0094 4.80842 22.8682 4.94088L21.1541 6.56338Z" fill="#A75CFF"/>
<path d="M33.9309 6.56338C33.8052 6.67842 33.7475 6.8448 33.7761 7.00797L34.2075 9.26296C34.2439 9.45409 34.1585 9.64751 33.9891 9.75797C33.8232 9.87255 33.6024 9.8863 33.4213 9.79463L31.272 8.73588C31.1972 8.6983 31.1143 8.67813 31.0293 8.67584H30.8978C30.8522 8.68226 30.8076 8.69601 30.7668 8.71709L28.6169 9.78088C28.5107 9.8313 28.3903 9.84917 28.2724 9.8313C27.9851 9.77997 27.7934 9.52147 27.8405 9.24876L28.2724 6.99376C28.301 6.82922 28.2433 6.66192 28.1176 6.54505L26.3652 4.94088C26.2186 4.80659 26.1677 4.60492 26.2346 4.42297C26.2997 4.24147 26.4656 4.10901 26.6661 4.07922L29.078 3.74876C29.2614 3.73088 29.4225 3.62547 29.505 3.46963L30.5678 1.41171C30.593 1.36588 30.6256 1.32371 30.6649 1.28796L30.7085 1.25588C30.7314 1.23205 30.7576 1.21234 30.7867 1.1963L30.8396 1.17796L30.9221 1.14588H31.1264C31.3089 1.16376 31.4695 1.26688 31.5534 1.42088L32.6303 3.46963C32.708 3.61951 32.8589 3.72355 33.0331 3.74876L35.445 4.07922C35.6488 4.10672 35.8192 4.23963 35.8866 4.42297C35.9502 4.60676 35.8954 4.80842 35.7459 4.94088L33.9309 6.56338Z" fill="#A75CFF"/>
<path d="M46.3889 6.56338C46.2702 6.67842 46.2157 6.8448 46.2427 7.00797L46.6502 9.26296C46.6845 9.45409 46.6039 9.64751 46.4439 9.75797C46.2872 9.87255 46.0786 9.8863 45.9077 9.79463L43.8777 8.73588C43.8071 8.6983 43.7288 8.67813 43.6485 8.67584H43.5243C43.4813 8.68226 43.4391 8.69601 43.4006 8.71709L41.3702 9.78088C41.2698 9.8313 41.1561 9.84917 41.0448 9.8313C40.7734 9.77997 40.5924 9.52147 40.6368 9.24876L41.0448 6.99376C41.0718 6.82922 41.0173 6.66192 40.8985 6.54505L39.2435 4.94088C39.1051 4.80659 39.057 4.60492 39.1202 4.42297C39.1816 4.24147 39.3384 4.10901 39.5277 4.07922L41.8056 3.74876C41.9788 3.73088 42.131 3.62547 42.2089 3.46963L43.2127 1.41171C43.2365 1.36588 43.2672 1.32371 43.3043 1.28796L43.3456 1.25588C43.3671 1.23205 43.3919 1.21234 43.4194 1.1963L43.4693 1.17796L43.5473 1.14588H43.7402C43.9125 1.16376 44.0643 1.26688 44.1435 1.42088L45.1606 3.46963C45.2339 3.61951 45.3765 3.72355 45.541 3.74876L47.8189 4.07922C48.0114 4.10672 48.1723 4.23963 48.236 4.42297C48.296 4.60676 48.2443 4.80842 48.1031 4.94088L46.3889 6.56338Z" fill="#A75CFF"/>
<path d="M59.3303 6.56338C59.2116 6.67842 59.1571 6.8448 59.1841 7.00797L59.5916 9.26296C59.626 9.45409 59.5453 9.64751 59.3853 9.75797C59.2286 9.87255 59.02 9.8863 58.8491 9.79463L56.8191 8.73588C56.7485 8.6983 56.6702 8.67813 56.59 8.67584H56.4657C56.4227 8.68226 56.3805 8.69601 56.342 8.71709L54.3116 9.78088C54.2112 9.8313 54.0975 9.84917 53.9862 9.8313C53.7148 9.77997 53.5338 9.52147 53.5782 9.24876L53.9862 6.99376C54.0132 6.82922 53.9587 6.66192 53.84 6.54505L52.1849 4.94088C52.0465 4.80659 51.9984 4.60492 52.0616 4.42297C52.123 4.24147 52.2798 4.10901 52.4691 4.07922L54.747 3.74876C54.9202 3.73088 55.0724 3.62547 55.1503 3.46963L56.1541 1.41171C56.1779 1.36588 56.2086 1.32371 56.2457 1.28796L56.287 1.25588C56.3085 1.23205 56.3333 1.21234 56.3608 1.1963L56.4107 1.17796L56.4887 1.14588H56.6816C56.854 1.16376 57.0057 1.26688 57.085 1.42088L58.102 3.46963C58.1753 3.61951 58.3179 3.72355 58.4824 3.74876L60.7603 4.07922C60.9528 4.10672 61.1137 4.23963 61.1774 4.42297C61.2375 4.60676 61.1857 4.80842 61.0445 4.94088L59.3303 6.56338Z" stroke="#A75CFF"/>
</svg>
