<svg width="29" height="18" viewBox="0 0 29 18" fill="none" xmlns="http://www.w3.org/2000/svg">
<g clip-path="url(#clip0_1_1684)">
<path d="M0 8.99994C0 6.82686 0 4.65379 0 2.48071C0 1.92302 0.136516 1.42302 0.468057 0.980708C0.936113 0.365324 1.56019 0.0384005 2.35979 -6.10352e-05C2.5158 -6.10352e-05 2.65232 -6.10352e-05 2.80834 -6.10352e-05C6.90383 -6.10352e-05 10.9798 -6.10352e-05 15.0753 -6.10352e-05C15.6604 -6.10352e-05 15.6994 0.0384005 15.7774 0.596093C15.8749 1.34609 16.5575 1.94225 17.3376 1.94225C18.1372 1.92302 18.7808 1.32686 18.8783 0.538401C18.8783 0.480708 18.8783 0.442247 18.8978 0.384554C18.9173 0.134554 19.0733 -6.10352e-05 19.3268 -6.10352e-05C19.3658 -6.10352e-05 19.4048 -6.10352e-05 19.4634 -6.10352e-05C21.8231 -6.10352e-05 24.1634 -6.10352e-05 26.5232 -6.10352e-05C27.1863 -6.10352e-05 27.7519 0.211477 28.2394 0.634554C28.7465 1.09609 29 1.67302 29.0195 2.34609C29.0195 2.38455 29.0195 2.42302 29.0195 2.48071C29.0195 6.84609 29.0195 11.1922 29.0195 15.5576C29.0195 16.5192 28.571 17.2692 27.7128 17.7307C27.3423 17.923 26.9523 17.9999 26.5427 17.9999C24.612 17.9999 22.6617 17.9999 20.731 17.9999C20.302 17.9999 19.8534 17.9999 19.4243 17.9999C19.0733 17.9999 18.9368 17.8846 18.9173 17.5384C18.8393 16.7692 18.3712 16.2307 17.6301 16.0769C16.7525 15.9038 15.8749 16.5576 15.7969 17.4422C15.7969 17.5192 15.7969 17.5769 15.7774 17.6538C15.7384 17.8653 15.6019 17.9807 15.3874 17.9999C15.3289 17.9999 15.2898 17.9999 15.2313 17.9999C10.9798 17.9999 6.72831 17.9999 2.4768 17.9999C1.42367 17.9999 0.66308 17.4807 0.234028 16.5384C0.0780094 16.2307 0.0390047 15.8846 0.0390047 15.5384C0 13.3461 0 11.173 0 8.99994ZM19.6974 17.1538C19.7754 17.1538 19.8144 17.173 19.8729 17.173C22.1157 17.173 24.3584 17.173 26.6012 17.173C27.3033 17.173 27.9274 16.673 28.1029 15.9999C28.1419 15.8269 28.1614 15.6346 28.1614 15.4422C28.1614 11.1538 28.1614 6.88455 28.1614 2.59609C28.1614 2.5384 28.1614 2.48071 28.1614 2.42302C28.1224 1.49994 27.4398 0.846093 26.5037 0.846093C24.3389 0.846093 22.1547 0.846093 19.9899 0.846093C19.8924 0.846093 19.7949 0.865324 19.6974 0.865324C19.5804 1.34609 19.3658 1.76917 19.0148 2.11532C18.6638 2.46148 18.2347 2.65379 17.7471 2.7884C17.7471 2.92302 17.7471 3.01917 17.7471 3.11532C17.7471 3.2884 17.7471 3.46148 17.7471 3.63455C17.7276 3.88455 17.5521 4.0384 17.3376 4.0384C17.1036 4.0384 16.928 3.88455 16.9085 3.63455C16.9085 3.5384 16.9085 3.44225 16.9085 3.34609C16.9085 3.15378 16.9085 2.98071 16.9085 2.80763C16.8695 2.76917 16.85 2.76917 16.8305 2.74994C16.772 2.73071 16.7135 2.71148 16.655 2.69225C15.8164 2.44225 15.2703 1.90379 15.0168 1.07686C14.9388 0.846093 14.9388 0.826862 14.6658 0.826862C10.6093 0.826862 6.55279 0.826862 2.4963 0.826862C1.54069 0.826862 0.858104 1.49994 0.858104 2.46148C0.858104 6.82686 0.858104 11.173 0.858104 15.5384C0.858104 15.6538 0.858104 15.7884 0.877606 15.9038C1.01412 16.6346 1.6967 17.1922 2.53531 17.1922C6.57229 17.173 10.5898 17.1922 14.6268 17.1922C14.7243 17.1922 14.8218 17.1922 14.9388 17.1922C15.0558 16.6922 15.2703 16.2692 15.6214 15.923C15.9724 15.5769 16.4015 15.3653 16.9085 15.2499C16.9085 15.1346 16.9085 15.0192 16.9085 14.923C16.9085 14.7499 16.9085 14.5576 16.9085 14.3846C16.928 14.1538 17.1036 13.9999 17.3181 13.9999C17.5326 13.9999 17.7276 14.1538 17.7471 14.3653C17.7666 14.5192 17.7471 14.673 17.7471 14.8269C17.7471 14.9615 17.7471 15.0961 17.7471 15.2499C18.2347 15.3653 18.6638 15.5769 19.0148 15.9038C19.3658 16.2499 19.5804 16.673 19.6974 17.1538Z" fill="#A75CFF"/>
<path d="M6.94289 9.01918C5.87026 9.05764 4.89514 8.13456 4.89514 6.99994C4.89514 5.86533 5.90926 4.98071 6.96239 4.98071C7.93751 4.98071 9.02964 5.80764 9.01014 7.01917C9.01014 8.15379 7.99602 9.05764 6.94289 9.01918ZM6.94289 5.74994C6.2408 5.74994 5.67524 6.32687 5.69474 7.01917C5.69474 7.71148 6.29931 8.28841 6.98189 8.26917C7.66448 8.24994 8.24955 7.65379 8.24955 6.99994C8.23004 6.32687 7.62547 5.74994 6.94289 5.74994Z" fill="#A75CFF"/>
<path d="M11.0773 8.98072C12.1694 8.96148 13.1445 9.8461 13.1445 11.0192C13.1445 12.2499 12.0524 13.0576 11.0383 13.0192C9.92665 12.9807 9.02954 12.0961 9.02954 10.9807C9.02954 9.88456 9.96565 8.98072 11.0773 8.98072ZM11.0578 12.2499C11.8184 12.2884 12.3644 11.5961 12.3644 11.0192C12.3644 10.3269 11.7794 9.73071 11.0773 9.73071C10.3947 9.73071 9.80964 10.3076 9.79013 10.9807C9.79013 11.6923 10.3557 12.2499 11.0578 12.2499Z" fill="#A75CFF"/>
<path d="M6.16278 13.0191C5.83124 13.0191 5.65572 12.7499 5.77273 12.4614C5.81174 12.3845 5.87024 12.3076 5.92875 12.2307C7.58645 10.1538 9.24415 8.09606 10.8823 6.01914C11.0774 5.76914 11.2724 5.51914 11.4869 5.26914C11.5454 5.19222 11.6039 5.1153 11.6819 5.07683C11.838 4.96145 12.033 4.96145 12.1695 5.07683C12.306 5.19222 12.3645 5.40376 12.267 5.5576C12.228 5.6153 12.189 5.67299 12.15 5.73068C10.2778 8.07683 8.40555 10.423 6.55282 12.7499C6.43581 12.9038 6.3188 13.0191 6.16278 13.0191Z" fill="#A75CFF"/>
<path d="M17.7276 6.84611C17.7276 7.19227 17.7276 7.53842 17.7276 7.90381C17.7276 8.2115 17.5131 8.38457 17.2401 8.34611C17.0646 8.32688 16.928 8.19227 16.889 8.01919C16.889 7.99996 16.889 7.9615 16.889 7.94227C16.889 7.2115 16.889 6.48073 16.889 5.76919C16.889 5.53842 17.0451 5.38457 17.2791 5.36534C17.5521 5.34611 17.7276 5.51919 17.7471 5.80765C17.7471 6.11534 17.7471 6.40381 17.7471 6.7115C17.7276 6.74996 17.7276 6.78842 17.7276 6.84611Z" fill="#A75CFF"/>
<path d="M17.7276 11.1538C17.7276 11.4999 17.7276 11.8461 17.7276 12.2115C17.7276 12.4807 17.5521 12.6538 17.2986 12.6538C17.0841 12.6538 16.928 12.5192 16.889 12.3076C16.889 12.2884 16.889 12.2499 16.889 12.2307C16.889 11.5192 16.889 10.8076 16.889 10.0961C16.889 9.78838 17.1231 9.61531 17.3961 9.673C17.5911 9.71146 17.7276 9.86531 17.7276 10.1153C17.7471 10.4615 17.7276 10.8076 17.7276 11.1538Z" fill="#A75CFF"/>
</g>
<defs>
<clipPath id="clip0_1_1684">
<rect width="29" height="18" fill="white"/>
</clipPath>
</defs>
</svg>
