<svg width="8" height="14" viewBox="0 0 8 14" fill="none" xmlns="http://www.w3.org/2000/svg">
<path fill-rule="evenodd" clip-rule="evenodd" d="M1.68122 14V8.7819H0V4.375H1.68122V3.90104C1.68122 2.82872 1.95723 1.82373 2.71647 1.06138C3.41544 0.337211 4.32426 0 5.35371 0C6.01792 0 6.58497 0.0495128 7.00555 0.0982815L8 0.213596V4.27018H5.96943V4.375H7.98242L7.42558 8.7819H5.96943V14H1.68122ZM4.85153 7.61523H6.44542L6.70742 5.54167H4.85153V4.10612C4.85153 3.78711 4.8952 3.53646 5.0262 3.37695C5.15721 3.19466 5.44105 3.10352 5.83406 3.10352H6.8821V1.25781C6.48908 1.21224 5.96507 1.16667 5.35371 1.16667C4.56769 1.16667 3.95633 1.41732 3.49782 1.89583C3.01747 2.37435 2.79913 3.03516 2.79913 3.90104V5.54167H1.1179V7.61523H2.79913V12.8333H4.85153V7.61523Z" fill="#A75CFF"/>
</svg>
