<svg width="15" height="13" viewBox="0 0 15 13" fill="none" xmlns="http://www.w3.org/2000/svg">
<g clip-path="url(#clip0_1_139)">
<path d="M0.229248 13C0.306511 12.9159 0.383773 12.8319 0.445584 12.7478C0.955517 12.2155 1.46545 11.6832 1.97539 11.1509C2.42351 10.6746 2.87163 10.2123 3.31976 9.73599C3.79878 9.23168 4.27781 8.72737 4.75684 8.22306C5.05044 7.91487 5.34404 7.60668 5.63764 7.28448C5.66854 7.25647 5.68399 7.22845 5.65309 7.18642C5.43675 6.90625 5.22042 6.62608 5.01954 6.34591C4.75684 6.0097 4.5096 5.65948 4.24691 5.32328C3.98422 4.97306 3.72152 4.62284 3.45883 4.27263C3.07252 3.75431 2.67075 3.23599 2.26898 2.71767C1.94448 2.28341 1.61998 1.86315 1.29547 1.42888C1.00187 1.03664 0.692824 0.630388 0.399226 0.238147C0.368321 0.182112 0.321963 0.140086 0.275606 0.0840517C0.229248 0.0280172 0.244701 0 0.321963 0C0.337416 0 0.352868 0 0.352868 0C1.66633 0 2.94889 0 4.24691 0C4.33962 0 4.40143 0.0280172 4.46324 0.0980603C4.78775 0.518319 5.0968 0.938578 5.4213 1.35884C5.7458 1.7931 6.08576 2.24138 6.41026 2.67565C6.73477 3.09591 7.05927 3.53017 7.38377 3.95043C7.58466 4.21659 7.80099 4.49677 8.03278 4.79095C8.07914 4.73491 8.1255 4.67888 8.17185 4.63685C8.72814 4.04849 9.29989 3.44612 9.85618 2.85776C10.3352 2.35345 10.8142 1.86315 11.2933 1.35884C11.695 0.938578 12.0968 0.50431 12.4986 0.0840517C12.514 0.0280172 12.5913 0 12.6376 0C12.9776 0 13.3175 0 13.6421 0C13.673 0 13.6884 0.0140086 13.7193 0.0280172C13.7039 0.0420259 13.7039 0.0700431 13.6884 0.0840517C13.3794 0.420259 13.0549 0.756465 12.7458 1.07866C12.4522 1.38685 12.1432 1.69504 11.8496 2.01724C11.6487 2.22737 11.4787 2.42349 11.2778 2.63362C10.9224 3.01185 10.567 3.39009 10.2116 3.75431C9.82527 4.16056 9.43896 4.56681 9.0681 4.97306C8.91358 5.12716 8.75905 5.29526 8.61998 5.44935C8.57362 5.49138 8.58907 5.5194 8.61998 5.56142C8.85176 5.86961 9.08355 6.1778 9.33079 6.48599C9.6553 6.92026 9.9798 7.35453 10.3198 7.77478C10.6288 8.18104 10.9224 8.57328 11.2315 8.97953C11.4787 9.30172 11.7259 9.62392 11.9732 9.94612C12.344 10.4224 12.6994 10.9127 13.0703 11.389C13.3794 11.8093 13.7039 12.2155 14.0129 12.6358C14.0902 12.7478 14.1829 12.8459 14.2602 12.972C14.2138 12.972 14.1829 12.972 14.152 12.972C12.8385 12.972 11.5096 12.972 10.1961 12.972C10.1189 12.972 10.0725 12.944 10.0416 12.8879C9.84073 12.6078 9.62439 12.3276 9.40806 12.0474C9.0681 11.5991 8.72814 11.1509 8.38819 10.7026C8.04823 10.2543 7.70828 9.79203 7.35287 9.34375C7.01291 8.89547 6.67296 8.4472 6.333 8.01293C6.27119 7.92888 6.25574 7.92888 6.19393 7.99892C5.90033 8.30711 5.59128 8.62931 5.29768 8.9375C4.88046 9.38578 4.46324 9.82004 4.04603 10.2683C3.53609 10.8006 3.04161 11.333 2.53168 11.8653C2.20717 12.2155 1.86722 12.5657 1.52726 12.9159C1.49636 12.944 1.46545 12.972 1.41909 12.972C1.04823 12.972 0.677372 12.972 0.321963 12.972C0.275606 13 0.260153 13 0.229248 13ZM12.5295 12.1875C12.3904 12.0054 12.2668 11.8373 12.1277 11.6692C11.8187 11.2629 11.5096 10.8707 11.2006 10.4644C10.9224 10.1002 10.6443 9.73599 10.3507 9.37177C10.1652 9.13362 9.99525 8.90948 9.80982 8.67134C9.46987 8.23707 9.14536 7.8028 8.80541 7.36853C8.52726 7.00431 8.24911 6.6541 7.97097 6.28987C7.66192 5.89763 7.36832 5.50539 7.05927 5.09914C6.81203 4.77694 6.56479 4.45474 6.31755 4.13254C6.02395 3.7403 5.7149 3.34806 5.4213 2.96983C5.14316 2.6056 4.84956 2.24138 4.57141 1.86315C4.32417 1.55496 4.09238 1.23276 3.84514 0.924569C3.81424 0.882543 3.76788 0.854526 3.69062 0.854526C3.13433 0.854526 2.57803 0.854526 2.02174 0.854526C1.99084 0.854526 1.95993 0.854526 1.91357 0.854526C1.92903 0.896552 1.94448 0.924569 1.95993 0.952586C2.0372 1.05065 2.12991 1.16272 2.20717 1.26078C2.48532 1.61099 2.74801 1.96121 3.02616 2.32543C3.36611 2.77371 3.70607 3.20797 4.04603 3.65625C4.46324 4.18858 4.86501 4.7209 5.28223 5.25323C5.68399 5.77155 6.08576 6.28987 6.48753 6.8222C6.76567 7.17241 7.02837 7.53664 7.30651 7.88685C7.5383 8.18103 7.75463 8.47521 7.98642 8.7694C8.31093 9.18966 8.63543 9.60991 8.95993 10.0442C9.31534 10.5065 9.6862 10.9688 10.0416 11.445C10.1961 11.6412 10.3507 11.8513 10.5052 12.0474C10.5824 12.1455 10.6597 12.2155 10.8297 12.2015C11.3551 12.1875 11.8805 12.2015 12.4058 12.2015C12.4522 12.1875 12.4831 12.1875 12.5295 12.1875Z" fill="#A75CFF"/>
</g>
<defs>
<clipPath id="clip0_1_139">
<rect width="14" height="13" fill="white" transform="translate(0.229248)"/>
</clipPath>
</defs>
</svg>
