<svg width="17" height="15" viewBox="0 0 17 15" fill="none" xmlns="http://www.w3.org/2000/svg">
<path d="M8.77075 3.64955C9.48504 3.64955 10.1636 3.85045 10.8065 4.18527C11.4493 4.52009 11.9493 4.98884 12.3065 5.59152C12.6636 6.1942 12.8779 6.83036 12.8779 7.5C12.8779 8.20312 12.6636 8.83929 12.3065 9.44196C11.9493 10.0446 11.4493 10.5134 10.8065 10.8482C10.1636 11.183 9.48504 11.3504 8.77075 11.3504C8.02075 11.3504 7.34218 11.183 6.69932 10.8482C6.05647 10.5134 5.55647 10.0446 5.19932 9.44196C4.84218 8.83929 4.66361 8.20312 4.66361 7.5C4.66361 6.83036 4.84218 6.1942 5.19932 5.59152C5.55647 4.98884 6.05647 4.52009 6.69932 4.18527C7.34218 3.85045 8.02075 3.64955 8.77075 3.64955ZM8.77075 10.0112C9.48504 10.0112 10.1279 9.77679 10.6636 9.27455C11.1636 8.8058 11.4493 8.20312 11.4493 7.5C11.4493 6.83036 11.1636 6.22768 10.6636 5.72545C10.1279 5.2567 9.48504 4.98884 8.77075 4.98884C8.02075 4.98884 7.37789 5.2567 6.87789 5.72545C6.34218 6.22768 6.09218 6.83036 6.09218 7.5C6.09218 8.20312 6.34218 8.8058 6.87789 9.27455C7.37789 9.77679 8.02075 10.0112 8.77075 10.0112ZM14.0208 3.48214C14.0208 3.24777 13.9136 3.04688 13.735 2.84598C13.5208 2.67857 13.3065 2.57812 13.0565 2.57812C12.7708 2.57812 12.5565 2.67857 12.3779 2.84598C12.1636 3.04688 12.0922 3.24777 12.0922 3.48214C12.0922 3.75 12.1636 3.95089 12.3779 4.1183C12.5565 4.3192 12.7708 4.38616 13.0565 4.38616C13.3065 4.38616 13.5208 4.3192 13.6993 4.1183C13.8779 3.95089 13.985 3.75 14.0208 3.48214ZM16.735 4.38616C16.735 5.02232 16.7708 6.06027 16.7708 7.5C16.7708 8.97321 16.735 10.0112 16.6993 10.6473C16.6636 11.2835 16.5565 11.8192 16.4136 12.2879C16.1993 12.8571 15.8422 13.3594 15.4136 13.7612C14.985 14.1629 14.4493 14.4643 13.8779 14.6652C13.3779 14.8326 12.7708 14.933 12.0922 14.9665C11.4136 15 10.3065 15 8.77075 15C7.19932 15 6.09218 15 5.41361 14.9665C4.73504 14.933 4.16361 14.8326 3.66361 14.6317C3.05647 14.4643 2.52075 14.1629 2.09218 13.7612C1.66361 13.3594 1.34218 12.8571 1.12789 12.2879C0.949323 11.8192 0.842181 11.2835 0.806466 10.6473C0.770752 10.0112 0.770752 8.97321 0.770752 7.5C0.770752 6.06027 0.770752 5.02232 0.806466 4.38616C0.842181 3.75 0.949323 3.1808 1.12789 2.71205C1.34218 2.17634 1.66361 1.67411 2.09218 1.27232C2.52075 0.870536 3.05647 0.535714 3.66361 0.334821C4.16361 0.200893 4.73504 0.100446 5.41361 0.0669643C6.09218 0.0334821 7.19932 0 8.77075 0C10.3065 0 11.4136 0.0334821 12.0922 0.0669643C12.7708 0.100446 13.3779 0.200893 13.8779 0.334821C14.4493 0.535714 14.985 0.870536 15.4136 1.27232C15.8422 1.67411 16.1993 2.17634 16.4136 2.71205C16.5565 3.1808 16.6636 3.75 16.735 4.38616ZM15.0208 11.9196C15.1636 11.5513 15.235 10.9487 15.3065 10.1116C15.3065 9.64286 15.3422 8.93973 15.3422 8.03571V6.96429C15.3422 6.06027 15.3065 5.35714 15.3065 4.88839C15.235 4.05134 15.1636 3.44866 15.0208 3.08036C14.735 2.41071 14.1993 1.90848 13.485 1.64062C13.0922 1.5067 12.4493 1.43973 11.5565 1.37277C11.0208 1.37277 10.2708 1.33929 9.34218 1.33929H8.19932C7.23504 1.33929 6.48504 1.37277 5.98504 1.37277C5.09218 1.43973 4.44932 1.5067 4.05647 1.64062C3.30647 1.90848 2.80647 2.41071 2.52075 3.08036C2.37789 3.44866 2.27075 4.05134 2.23504 4.88839C2.19932 5.39062 2.19932 6.09375 2.19932 6.96429V8.03571C2.19932 8.93973 2.19932 9.64286 2.23504 10.1116C2.27075 10.9487 2.37789 11.5513 2.52075 11.9196C2.80647 12.6228 3.34218 13.0915 4.05647 13.3594C4.44932 13.4933 5.09218 13.5938 5.98504 13.6272C6.48504 13.6607 7.23504 13.6607 8.19932 13.6607H9.34218C10.3065 13.6607 11.0565 13.6607 11.5565 13.6272C12.4493 13.5938 13.0922 13.4933 13.485 13.3594C14.1993 13.0915 14.735 12.5893 15.0208 11.9196Z" fill="#A75CFF"/>
</svg>
