<svg width="15" height="15" viewBox="0 0 15 15" fill="none" xmlns="http://www.w3.org/2000/svg">
<path fill-rule="evenodd" clip-rule="evenodd" d="M0.198143 15V4.21762H0.472086C0.144242 3.75936 0 3.22665 0 2.68795C0 1.98768 0.261215 1.32375 0.792485 0.792485C1.27545 0.309515 1.93193 0 2.68795 0C3.43305 0 4.06806 0.322204 4.5435 0.754417L4.58435 0.791556L4.62149 0.832408C5.0537 1.30784 5.37591 1.94285 5.37591 2.68795C5.37591 3.26742 5.19407 3.78841 4.89167 4.21762H9.33242C9.74701 4.07251 10.1999 3.99117 10.6986 3.99117C12.1831 3.99117 13.4555 4.49249 14.2392 5.66801L14.2566 5.69421L14.2726 5.72131C14.7964 6.60772 15 7.81699 15 9.19837V15H10.0487V9.70788C10.0487 9.11846 10.0002 8.8073 9.96086 8.67019C9.95392 8.65741 9.94826 8.64865 9.94435 8.6431C9.94374 8.64294 9.9431 8.64277 9.94244 8.6426C9.9255 8.63826 9.88743 8.63111 9.82111 8.63111C9.67781 8.63111 9.61001 8.65264 9.58879 8.66117C9.58752 8.6634 9.58603 8.66618 9.58434 8.66955L9.56764 8.70297L9.54881 8.73524C9.51069 8.80058 9.42369 9.05247 9.42369 9.65127V15H0.198143ZM1.61232 3.76359C1.89538 4.07495 2.26336 4.21649 2.68795 4.21649C3.08424 4.21649 3.45222 4.07495 3.76359 3.76359C4.04665 3.48053 4.21649 3.11255 4.21649 2.68795C4.21649 2.29167 4.04665 1.92369 3.76359 1.61232C3.45222 1.32926 3.08424 1.15942 2.68795 1.15942C2.26336 1.15942 1.89538 1.32926 1.61232 1.61232C1.30095 1.92369 1.15942 2.29167 1.15942 2.68795C1.15942 3.11255 1.30095 3.48053 1.61232 3.76359ZM11.0383 8.23596C11.1515 8.54733 11.2081 9.02853 11.2081 9.70788V13.8406H13.8406V9.19837C13.8406 7.89629 13.6424 6.93388 13.2745 6.31114C12.7649 5.54688 11.9158 5.15059 10.6986 5.15059C10.177 5.15059 9.73478 5.26975 9.33877 5.47481C9.26201 5.51456 9.18698 5.55753 9.11345 5.60349C8.68886 5.85824 8.37749 6.16961 8.20765 6.53759H8.17935V5.37817L5.6601 5.37704V13.8406H8.26427V9.65127C8.26427 9.00023 8.34918 8.49072 8.54733 8.15104C8.64336 7.95897 8.77504 7.80763 8.94235 7.69701C8.94574 7.69477 8.94915 7.69254 8.95257 7.69033C9.17831 7.54457 9.46782 7.47169 9.82111 7.47169C10.4155 7.47169 10.8118 7.72645 11.0383 8.23596ZM3.99004 13.8406V5.37704H1.35756V13.8406H3.99004Z" fill="#A75CFF"/>
</svg>
